<?xml version="1.0" standalone="no"?>
<!DOCTYPE svg PUBLIC "-//W3C//DTD SVG 20010904//EN"
 "http://www.w3.org/TR/2001/REC-SVG-20010904/DTD/svg10.dtd">
<svg version="1.0" xmlns="http://www.w3.org/2000/svg"
 width="998.000000pt" height="998.000000pt" viewBox="0 0 998.000000 998.000000"
 preserveAspectRatio="xMidYMid meet">
<metadata>
Created by potrace 1.14, written by Peter Selinger 2001-2017
</metadata>
<g transform="translate(0.000000,998.000000) scale(0.100000,-0.100000)"
fill="#000000" stroke="none">
<path d="M4873 5595 c-72 -20 -119 -45 -185 -99 -52 -42 -157 -180 -146 -191
3 -3 20 18 38 47 18 29 35 47 37 41 3 -8 27 10 61 43 34 33 85 69 131 92 72
36 79 37 180 37 98 0 111 -2 172 -31 38 -18 93 -57 132 -94 37 -34 67 -58 67
-52 0 20 -122 122 -183 152 -162 79 -359 45 -497 -86 -33 -31 -60 -52 -60 -46
0 16 106 107 160 136 199 108 455 40 594 -158 57 -81 65 -100 23 -52 -27 31
-35 35 -40 22 -4 -9 -10 -15 -14 -14 -18 6 -16 -7 13 -80 18 -45 1 -32 -26 20
-12 24 -36 58 -52 77 -16 18 -27 35 -24 38 3 3 17 -9 32 -26 14 -18 29 -29 32
-26 3 3 -19 30 -48 60 -30 30 -50 55 -45 55 5 0 35 -26 67 -57 32 -32 58 -53
58 -48 0 21 -129 133 -182 159 -164 80 -349 45 -481 -93 -57 -59 -80 -96 -32
-51 14 13 25 19 25 13 0 -5 -9 -18 -21 -29 -20 -18 -22 -18 -34 -1 -6 9 -15
17 -19 17 -11 0 -6 -18 9 -34 14 -14 14 -18 -1 -41 -9 -13 -20 -22 -25 -19 -5
3 -9 1 -9 -5 0 -5 5 -11 12 -13 9 -3 9 -6 0 -12 -7 -4 -12 -2 -12 5 0 8 -4 8
-15 -1 -10 -9 -15 -9 -15 -1 0 6 4 11 9 11 5 0 14 13 19 30 8 22 15 28 27 23
15 -5 15 -3 4 15 l-14 22 -22 -28 c-12 -15 -23 -34 -23 -42 0 -13 -1 -13 -10
0 -7 12 -10 11 -15 -5 -4 -11 -11 -28 -16 -37 -14 -28 -11 -58 7 -58 11 0 15
6 11 20 -3 11 -1 18 4 14 5 -3 9 0 9 6 0 5 13 9 29 8 27 -2 28 -4 18 -23 -10
-18 -11 -19 -15 -2 -4 19 -23 19 -30 -1 -2 -6 9 -14 25 -18 15 -4 30 -10 33
-14 3 -3 42 -34 87 -68 l82 -62 -16 -35 c-19 -40 -17 -40 -73 -20 -53 19 -50
19 -50 -4 0 -13 11 -21 43 -27 40 -9 42 -11 39 -42 -5 -50 12 -38 31 21 35
110 137 187 247 187 118 -1 225 -88 249 -204 9 -40 26 -43 26 -5 0 29 4 33 45
45 24 7 45 12 45 11 1 -1 7 -17 14 -34 15 -38 22 -40 44 -15 24 26 21 37 -14
66 -36 30 -51 33 -43 9 4 -13 3 -14 -3 -5 -8 10 -18 9 -52 -3 -56 -20 -55 -20
-72 13 -7 15 -15 30 -17 34 -5 10 135 118 153 118 9 0 14 -4 10 -9 -10 -16 12
-21 25 -6 7 8 16 12 22 9 5 -3 16 0 24 7 12 10 13 9 8 -5 -4 -9 -14 -16 -23
-14 -9 1 -22 -1 -29 -6 -11 -6 -11 -11 0 -24 11 -14 9 -14 -8 1 -49 41 -46 -2
4 -50 l37 -35 -37 27 -38 27 0 -26 c0 -18 8 -30 29 -41 17 -8 36 -24 44 -35
14 -21 15 -21 46 5 17 15 31 22 31 17 0 -6 -15 -20 -34 -32 -60 -36 -130 -129
-77 -100 26 13 41 13 18 -1 -17 -10 -16 -12 8 -31 14 -11 24 -23 20 -26 -3 -3
-16 5 -30 18 -36 33 -44 16 -10 -20 16 -17 24 -30 18 -30 -5 0 -18 9 -28 20
-25 27 -38 11 -24 -28 13 -37 35 -52 78 -52 34 0 71 39 71 75 0 30 -37 75 -61
75 -14 0 -19 7 -19 25 0 29 16 32 47 10 21 -15 23 -14 28 7 11 47 12 98 2 98
-6 0 -7 15 -4 37 l6 36 -45 -44 c-25 -24 -42 -36 -39 -27 4 9 18 24 31 33 29
19 49 64 36 77 -6 6 -18 -1 -31 -18 -11 -15 -21 -22 -21 -17 0 6 7 17 16 24
30 25 32 51 7 117 -12 36 -23 67 -23 69 0 2 -5 1 -12 -3 -7 -5 -9 -2 -5 9 13
34 -100 176 -189 238 -101 69 -257 96 -371 64z m244 -75 c58 -20 108 -48 100
-56 -2 -3 -20 4 -38 15 -100 58 -240 65 -346 16 -74 -34 -64 -41 14 -10 132
54 270 32 387 -60 11 -8 17 -17 14 -21 -3 -3 -27 11 -53 30 -131 101 -333 84
-459 -36 l-47 -45 76 -123 76 -122 -22 -24 c-12 -13 -27 -24 -32 -24 -5 0 -43
30 -83 66 -41 36 -78 63 -84 59 -14 -9 -13 8 2 23 10 10 10 15 -2 22 -12 7
-12 12 -2 22 9 9 12 9 12 -2 0 -8 14 8 31 34 16 27 28 51 25 53 -5 6 -46 -57
-46 -70 0 -5 -4 -6 -10 -2 -15 9 11 56 62 110 48 50 58 77 13 35 -14 -13 -25
-19 -25 -13 0 11 89 82 130 103 84 44 215 52 307 20z m-67 -36 c31 -7 32 -9
26 -43 -4 -20 -16 -94 -29 -166 l-22 -130 -36 -3 -35 -3 -27 158 c-32 186 -32
180 -9 186 27 7 97 8 132 1z m-153 -184 c18 -85 29 -158 24 -163 -4 -4 -20 -9
-35 -10 -26 -2 -34 8 -97 118 -64 112 -67 120 -52 137 24 27 105 79 117 75 6
-2 25 -73 43 -157z m302 115 l60 -44 -69 -123 c-64 -112 -72 -123 -97 -121
-14 1 -30 6 -36 12 -12 12 54 321 69 321 7 0 39 -20 73 -45z m141 -172 c35
-64 52 -73 87 -47 l28 21 0 -22 c0 -17 -5 -20 -22 -17 -13 2 -23 0 -23 -5 0
-5 -7 -10 -15 -10 -8 0 -15 4 -15 8 0 4 -7 10 -16 13 -11 4 -40 -15 -91 -59
-41 -36 -77 -65 -81 -65 -10 1 -52 37 -52 45 0 4 30 58 68 121 l67 114 20 -26
c11 -14 31 -46 45 -71z m29 80 c-12 -15 -12 -16 3 -10 12 4 22 -5 38 -36 13
-24 16 -36 7 -29 -15 13 -27 6 -27 -15 0 -8 4 -11 10 -8 6 3 7 -1 3 -10 -5
-13 -7 -14 -14 -3 -12 18 -11 48 1 48 6 0 10 4 10 10 0 5 -7 7 -15 4 -8 -4
-15 -1 -15 6 0 6 5 8 10 5 6 -3 10 1 10 9 0 9 -6 13 -14 10 -16 -6 -30 11 -21
26 3 6 11 10 17 10 6 0 5 -7 -3 -17z m66 -242 c-3 -6 -11 -11 -16 -11 -5 0 -4
6 3 14 14 16 24 13 13 -3z"/>
<path d="M4750 5445 c-7 -8 -8 -15 -2 -15 5 0 15 7 22 15 7 8 8 15 2 15 -5 0
-15 -7 -22 -15z"/>
<path d="M1585 5258 c0 -62 2 -68 21 -68 17 0 20 5 17 24 -4 19 0 25 17 28 13
2 29 12 36 24 21 31 -3 58 -52 59 l-39 0 0 -67z m73 24 c3 -17 -2 -22 -17 -22
-16 0 -21 6 -21 26 0 33 33 30 38 -4z"/>
<path d="M2001 5313 c-32 -27 -39 -85 -12 -112 25 -25 35 -26 55 -5 30 30 16
84 -22 87 -31 2 -27 13 8 26 17 5 30 12 30 15 0 13 -39 5 -59 -11z m34 -79 c0
-19 -5 -29 -15 -29 -16 0 -25 28 -16 51 10 25 31 10 31 -22z"/>
<path d="M2540 5310 c-28 -28 -26 -75 5 -106 15 -15 32 -23 41 -20 9 3 20 6
25 6 5 0 9 5 9 10 0 6 -10 8 -22 5 -35 -8 -51 9 -50 50 1 20 4 40 7 45 8 13
45 13 45 0 0 -5 5 -10 10 -10 16 0 11 27 -6 34 -27 10 -43 7 -64 -14z"/>
<path d="M3358 5323 c-10 -2 -23 -22 -29 -44 -7 -21 -15 -39 -19 -39 -4 0 -12
18 -19 40 -8 26 -18 40 -29 40 -14 0 -17 -10 -17 -65 0 -45 4 -65 13 -65 6 0
11 3 11 8 -1 4 0 23 1 42 l2 35 15 -43 c17 -48 25 -46 48 13 l15 40 -3 -48
c-2 -47 -2 -47 28 -46 16 1 35 1 40 -1 6 -1 21 -2 35 -1 24 1 26 4 22 39 -2
20 -10 42 -18 48 -19 15 -54 6 -54 -13 0 -12 3 -13 15 -3 8 6 19 8 26 4 7 -4
0 -12 -20 -20 -17 -7 -31 -20 -31 -29 0 -9 -5 -13 -11 -9 -7 4 -10 29 -7 65 2
33 4 58 4 58 -1 -1 -9 -3 -18 -6z m92 -102 c0 -12 -28 -22 -34 -12 -3 5 -3 11
1 15 9 9 33 7 33 -3z"/>
<path d="M5775 5258 c0 -55 3 -68 16 -68 12 0 14 7 11 30 -6 38 13 39 32 1 9
-16 22 -31 31 -34 20 -8 19 -1 -6 35 -16 22 -19 32 -10 41 29 29 1 67 -49 64
-24 -2 -25 -5 -25 -69z m62 36 c3 -9 0 -20 -8 -25 -23 -14 -29 -11 -29 16 0
28 27 35 37 9z"/>
<path d="M6165 5320 c-3 -5 -3 -10 2 -10 4 0 6 -25 5 -55 -4 -50 -2 -56 20
-64 38 -14 60 4 56 47 -2 30 -8 38 -25 40 -17 3 -23 10 -23 28 0 24 -23 34
-35 14z m60 -85 c0 -16 -6 -30 -12 -32 -9 -3 -13 7 -13 32 0 25 4 35 13 33 6
-3 12 -17 12 -33z"/>
<path d="M6260 5321 c0 -6 4 -11 8 -11 4 0 5 -27 2 -60 -5 -54 -4 -60 13 -60
16 0 18 8 15 67 -2 55 -6 68 -20 71 -10 2 -18 -1 -18 -7z"/>
<path d="M6375 5260 c0 -58 3 -70 17 -70 12 0 15 6 11 23 l-5 22 16 -22 c10
-13 24 -23 32 -23 12 0 11 5 -5 27 -20 24 -20 27 -5 45 12 13 13 18 4 18 -7 0
-19 -8 -26 -17 -12 -16 -13 -13 -14 25 0 27 -5 42 -12 42 -9 0 -13 -21 -13
-70z"/>
<path d="M6735 5320 c-3 -5 -2 -10 2 -10 5 0 6 -27 3 -60 -5 -50 -3 -60 10
-60 12 0 15 9 13 43 l-3 42 16 -43 c18 -48 26 -46 49 13 l15 40 -3 -47 c-2
-44 0 -48 20 -48 20 0 21 2 11 31 -6 17 -8 48 -5 68 4 34 3 38 -14 34 -11 -3
-24 -21 -30 -44 -13 -43 -24 -43 -34 1 -7 32 -39 58 -50 40z"/>
<path d="M7216 5306 c5 -21 2 -25 -23 -28 -24 -3 -28 -8 -31 -38 -4 -41 14
-59 55 -53 28 4 28 5 25 74 -3 52 -7 69 -18 69 -10 0 -13 -7 -8 -24z m-1 -72
c0 -19 -5 -29 -15 -29 -16 0 -25 28 -16 51 10 25 31 10 31 -22z"/>
<path d="M7910 5320 c0 -4 4 -10 9 -15 5 -6 16 -34 26 -63 9 -29 22 -51 27
-50 6 2 21 33 34 68 13 36 24 65 24 65 0 1 -9 1 -21 2 -15 1 -19 -2 -15 -14 4
-8 1 -33 -6 -55 l-12 -40 -13 38 c-7 21 -11 45 -8 55 4 13 0 17 -20 15 -14 0
-25 -3 -25 -6z"/>
<path d="M4087 5314 c-8 -8 1 -24 14 -24 5 0 9 7 9 15 0 15 -12 20 -23 9z"/>
<path d="M6325 5309 c-10 -15 3 -25 16 -12 7 7 7 13 1 17 -6 3 -14 1 -17 -5z"/>
<path d="M7460 5305 c0 -9 5 -15 11 -13 6 2 11 8 11 13 0 5 -5 11 -11 13 -6 2
-11 -4 -11 -13z"/>
<path d="M8190 5305 c0 -8 5 -15 10 -15 6 0 10 7 10 15 0 8 -4 15 -10 15 -5 0
-10 -7 -10 -15z"/>
<path d="M4591 5294 c0 -11 3 -14 6 -6 3 7 2 16 -1 19 -3 4 -6 -2 -5 -13z"/>
<path d="M7590 5300 c0 -5 5 -10 10 -10 6 0 10 5 10 10 0 6 -4 10 -10 10 -5 0
-10 -4 -10 -10z"/>
<path d="M7625 5300 c3 -5 10 -10 16 -10 5 0 9 5 9 10 0 6 -7 10 -16 10 -8 0
-12 -4 -9 -10z"/>
<path d="M7800 5300 c0 -5 5 -10 10 -10 6 0 10 5 10 10 0 6 -4 10 -10 10 -5 0
-10 -4 -10 -10z"/>
<path d="M7830 5300 c0 -5 5 -10 10 -10 6 0 10 5 10 10 0 6 -4 10 -10 10 -5 0
-10 -4 -10 -10z"/>
<path d="M8338 5288 c-10 -27 5 -89 23 -98 10 -6 20 -6 23 -1 3 5 -1 11 -9 15
-20 7 -19 46 3 62 16 13 16 13 0 14 -10 0 -18 5 -18 10 0 14 -17 12 -22 -2z"/>
<path d="M1708 5279 c-28 -16 -24 -77 5 -88 23 -9 47 -4 47 8 0 4 -10 7 -21 7
-12 -1 -24 5 -26 12 -3 8 6 12 27 12 24 0 31 4 28 16 -5 26 -40 45 -60 33z
m37 -19 c3 -5 -3 -10 -15 -10 -12 0 -18 5 -15 10 3 6 10 10 15 10 5 0 12 -4
15 -10z"/>
<path d="M2393 5283 c-7 -3 -13 -12 -13 -20 0 -12 3 -13 15 -3 8 6 19 8 26 4
7 -4 0 -12 -20 -20 -53 -22 -32 -65 28 -56 26 3 27 6 22 44 -6 41 -29 61 -58
51z m37 -62 c0 -14 -18 -23 -30 -16 -6 4 -8 11 -5 16 8 12 35 12 35 0z"/>
<path d="M2653 5279 c-16 -6 -23 -16 -23 -36 0 -44 16 -58 58 -54 21 2 13 18
-9 17 -12 -1 -24 5 -26 12 -3 8 6 12 26 12 35 0 41 18 14 42 -13 11 -25 13
-40 7z m32 -19 c3 -5 -3 -10 -15 -10 -12 0 -18 5 -15 10 3 6 10 10 15 10 5 0
12 -4 15 -10z"/>
<path d="M2828 5279 c-28 -16 -24 -77 5 -88 23 -9 47 -4 47 8 0 4 -10 7 -21 7
-12 -1 -24 5 -26 12 -3 8 6 12 27 12 24 0 31 4 28 16 -5 26 -40 45 -60 33z
m32 -19 c0 -5 -7 -10 -16 -10 -8 0 -12 5 -9 10 3 6 10 10 16 10 5 0 9 -4 9
-10z"/>
<path d="M3113 5283 c-7 -3 -13 -12 -13 -20 0 -12 3 -13 15 -3 8 6 19 8 26 4
7 -4 0 -12 -20 -20 -53 -22 -32 -65 28 -56 26 3 27 6 22 44 -6 41 -29 61 -58
51z m37 -62 c0 -12 -28 -22 -34 -12 -3 5 -3 11 1 15 9 9 33 7 33 -3z"/>
<path d="M3791 5274 c-27 -19 -27 -59 1 -78 38 -27 82 19 59 62 -15 28 -35 33
-60 16z m37 -42 c2 -23 -1 -32 -11 -32 -19 0 -29 27 -21 52 9 28 29 16 32 -20z"/>
<path d="M5900 5270 c-39 -39 -11 -87 48 -81 21 2 13 18 -9 17 -12 -1 -24 5
-26 12 -3 8 6 12 26 12 34 0 36 3 21 29 -15 29 -38 33 -60 11z m40 -10 c0 -5
-7 -10 -16 -10 -8 0 -12 5 -9 10 3 6 10 10 16 10 5 0 9 -4 9 -10z"/>
<path d="M6487 5279 c-9 -6 -17 -15 -17 -21 0 -9 3 -9 12 0 13 13 38 16 38 4
0 -4 -10 -12 -22 -17 -13 -6 -24 -20 -26 -32 -3 -20 1 -23 35 -23 l39 0 -4 40
c-5 45 -27 64 -55 49z m31 -61 c-6 -18 -28 -21 -28 -4 0 9 7 16 16 16 9 0 14
-5 12 -12z"/>
<path d="M6908 5283 c-10 -3 -18 -11 -18 -20 0 -13 3 -13 15 -3 11 9 19 10 26
3 7 -7 3 -12 -14 -17 -53 -13 -34 -67 20 -59 26 4 28 7 25 44 -4 41 -23 59
-54 52z m30 -65 c-6 -18 -28 -21 -28 -4 0 9 7 16 16 16 9 0 14 -5 12 -12z"/>
<path d="M7088 5279 c-28 -16 -24 -77 5 -88 23 -9 47 -4 47 8 0 4 -10 7 -21 7
-12 -1 -24 5 -26 12 -3 8 6 12 27 12 24 0 31 4 28 16 -5 26 -40 45 -60 33z
m32 -19 c0 -5 -7 -10 -16 -10 -8 0 -12 5 -9 10 3 6 10 10 16 10 5 0 9 -4 9
-10z"/>
<path d="M7271 5271 c-26 -26 -26 -46 -1 -71 24 -24 34 -25 55 -4 21 22 15 63
-12 81 -19 13 -24 12 -42 -6z m44 -37 c0 -19 -5 -29 -15 -29 -16 0 -25 28 -16
51 10 25 31 10 31 -22z"/>
<path d="M7517 5279 c-25 -14 -21 -38 8 -51 14 -6 25 -15 25 -20 0 -12 -24
-10 -38 4 -9 9 -12 8 -12 -4 0 -19 31 -29 54 -16 24 13 20 37 -9 50 -14 6 -25
15 -25 21 0 5 11 6 25 3 29 -7 33 -1 7 13 -11 6 -24 6 -35 0z"/>
<path d="M7608 5283 c-35 -9 -35 -86 0 -95 22 -6 42 1 42 13 0 6 -4 8 -9 5
-12 -8 -41 3 -41 15 0 5 14 9 30 9 34 0 40 19 14 44 -8 9 -16 15 -17 15 -1 -1
-10 -3 -19 -6z m27 -23 c3 -5 -3 -10 -15 -10 -12 0 -18 5 -15 10 3 6 10 10 15
10 5 0 12 -4 15 -10z"/>
<path d="M7727 5278 c-25 -13 -21 -35 9 -51 18 -9 23 -16 15 -21 -7 -4 -18 -2
-26 4 -12 10 -15 9 -15 -3 0 -8 7 -18 16 -21 17 -7 54 9 54 24 0 11 -25 37
-42 43 -7 2 -10 8 -6 12 4 4 14 2 23 -5 12 -10 15 -10 15 3 0 19 -22 27 -43
15z"/>
<path d="M7799 5269 c-11 -11 -18 -27 -15 -36 3 -8 6 -19 6 -24 0 -12 41 -28
58 -22 20 8 14 20 -9 19 -12 -1 -24 5 -26 12 -3 8 6 12 26 12 34 0 36 3 21 29
-15 29 -38 33 -61 10z m41 -9 c0 -5 -7 -10 -16 -10 -8 0 -12 5 -9 10 3 6 10
10 16 10 5 0 9 -4 9 -10z"/>
<path d="M1775 5235 c0 -34 4 -45 15 -45 12 0 15 8 12 35 -4 32 2 40 25 33 4
-2 7 -18 6 -35 -1 -25 3 -33 15 -33 13 0 17 10 17 45 l0 45 -45 0 -45 0 0 -45z"/>
<path d="M1880 5276 c0 -2 7 -20 15 -39 20 -47 19 -67 -2 -67 -13 0 -14 -3 -5
-12 17 -17 29 -2 57 66 22 54 22 56 3 56 -10 0 -17 -4 -14 -9 4 -5 2 -20 -3
-32 l-8 -24 -7 23 c-4 12 -4 26 -1 32 3 5 -3 10 -14 10 -12 0 -21 -2 -21 -4z"/>
<path d="M2093 5249 c0 -17 -6 -35 -14 -39 -17 -11 -5 -24 16 -17 9 4 15 19
15 36 0 16 5 33 11 37 8 5 10 -6 7 -35 -3 -32 0 -41 12 -41 11 0 15 12 15 45
1 44 0 45 -31 45 -28 0 -31 -3 -31 -31z"/>
<path d="M2175 5235 c0 -36 3 -45 18 -45 9 0 17 6 17 14 0 7 7 20 17 27 15 13
16 11 9 -13 -5 -23 -3 -28 11 -28 15 0 18 9 18 45 0 36 -3 45 -17 45 -10 0
-18 -6 -18 -14 0 -7 -7 -20 -17 -27 -15 -13 -16 -11 -11 14 4 20 1 27 -11 27
-12 0 -16 -10 -16 -45z"/>
<path d="M2284 5235 c1 -35 4 -45 17 -45 13 0 16 6 12 23 -4 20 -3 20 17 -6
12 -15 26 -25 31 -21 5 3 0 17 -11 32 -19 23 -20 28 -6 38 9 6 16 14 16 18 0
13 -23 5 -36 -11 -13 -17 -13 -17 -14 0 0 9 -6 17 -13 17 -9 0 -13 -14 -13
-45z"/>
<path d="M2715 5236 c0 -37 3 -45 21 -49 11 -2 31 0 43 5 19 7 22 13 16 40
-10 46 -12 48 -48 48 -31 0 -32 -1 -32 -44z m50 24 c3 -5 1 -10 -4 -10 -6 0
-11 5 -11 10 0 6 2 10 4 10 3 0 8 -4 11 -10z m7 -45 c0 -5 -5 -11 -11 -13 -6
-2 -11 4 -11 13 0 9 5 15 11 13 6 -2 11 -8 11 -13z"/>
<path d="M2895 5215 c0 -56 2 -65 18 -65 14 0 17 5 12 21 -4 13 -3 19 2 16 16
-10 53 23 53 47 0 30 -18 46 -54 46 l-31 0 0 -65z m60 13 c-5 -26 -11 -32 -24
-23 -12 7 -15 48 -4 58 11 12 32 -14 28 -35z"/>
<path d="M2995 5235 c0 -35 4 -45 17 -45 11 0 15 6 11 20 -4 14 0 20 12 20 12
0 16 -6 12 -20 -4 -14 0 -20 12 -20 13 0 16 10 17 45 0 37 -3 45 -18 45 -11 0
-15 -5 -12 -15 4 -10 0 -15 -11 -15 -11 0 -15 5 -11 15 3 10 -1 15 -12 15 -14
0 -17 -9 -17 -45z"/>
<path d="M3495 5235 c0 -35 4 -45 17 -45 12 0 15 6 11 23 -6 20 -4 20 21 -7
31 -32 46 -29 22 6 -20 28 -20 48 -1 48 8 0 15 5 15 10 0 16 -30 12 -36 -5 -4
-8 -11 -15 -16 -15 -6 0 -8 7 -4 15 3 10 -1 15 -12 15 -14 0 -17 -9 -17 -45z"/>
<path d="M3597 5273 c-4 -3 -7 -21 -7 -40 0 -26 5 -36 23 -42 23 -9 47 -4 47
8 0 4 -10 7 -21 7 -12 -1 -24 5 -26 12 -3 8 6 12 26 12 32 0 41 16 19 38 -13
13 -50 16 -61 5z m43 -13 c0 -5 -7 -10 -16 -10 -8 0 -12 5 -9 10 3 6 10 10 16
10 5 0 9 -4 9 -10z"/>
<path d="M3688 5246 c2 -18 -1 -37 -7 -40 -14 -9 -15 -46 -1 -46 6 0 10 7 10
15 0 22 57 20 63 -2 4 -17 4 -17 12 1 5 11 3 21 -5 26 -8 5 -11 21 -8 44 4 35
3 36 -32 36 -35 0 -36 -1 -32 -34z m42 -11 c0 -23 -5 -35 -14 -35 -13 0 -13
15 0 58 7 23 14 12 14 -23z"/>
<path d="M3865 5235 c0 -36 3 -45 18 -45 10 0 17 8 17 20 0 12 7 20 16 20 11
0 15 -6 11 -20 -4 -14 0 -20 11 -20 13 0 17 10 17 45 0 36 -3 45 -17 45 -11 0
-15 -5 -12 -15 4 -9 0 -15 -10 -15 -9 0 -16 7 -16 15 0 8 -8 15 -17 15 -15 0
-18 -9 -18 -45z"/>
<path d="M3975 5235 c0 -36 3 -45 18 -45 9 0 17 6 17 14 0 7 7 20 17 27 15 13
16 11 9 -13 -5 -23 -3 -28 11 -28 15 0 18 9 18 45 0 36 -3 45 -17 45 -10 0
-18 -6 -18 -14 0 -7 -7 -20 -17 -27 -15 -13 -16 -11 -11 14 4 20 1 27 -11 27
-12 0 -16 -10 -16 -45z"/>
<path d="M4085 5216 c0 -50 3 -62 13 -54 7 6 12 33 12 64 0 37 -4 54 -12 54
-9 0 -13 -19 -13 -64z"/>
<path d="M4130 5264 c0 -13 3 -14 15 -4 8 6 19 8 26 4 7 -4 0 -12 -20 -20 -53
-22 -32 -65 28 -56 26 3 27 6 22 45 -6 39 -9 42 -38 45 -26 3 -33 -1 -33 -14z
m50 -43 c0 -14 -18 -23 -30 -16 -6 4 -8 11 -5 16 8 12 35 12 35 0z"/>
<path d="M5975 5215 c0 -61 1 -65 23 -65 20 0 21 2 11 22 -9 18 -9 20 4 15 27
-10 49 16 45 53 -3 33 -5 35 -43 38 l-40 3 0 -66z m60 20 c0 -39 -22 -43 -27
-5 -5 32 0 42 16 37 6 -2 11 -16 11 -32z"/>
<path d="M6076 5248 c9 -55 12 -58 48 -58 34 0 34 0 33 45 0 35 -4 45 -17 45
-12 0 -15 -8 -12 -35 3 -27 1 -35 -12 -35 -12 0 -16 9 -16 35 0 24 -5 35 -15
35 -11 0 -13 -8 -9 -32z"/>
<path d="M6318 5235 c3 -30 9 -45 18 -45 10 0 14 13 14 45 0 36 -3 45 -18 45
-14 0 -17 -7 -14 -45z"/>
<path d="M6607 5273 c-4 -3 -7 -21 -7 -40 0 -26 5 -36 23 -42 23 -9 47 -4 47
8 0 4 -10 7 -21 7 -12 -1 -24 5 -26 12 -3 8 6 12 26 12 32 0 41 16 19 38 -13
13 -50 16 -61 5z m48 -13 c3 -5 -3 -10 -15 -10 -12 0 -18 5 -15 10 3 6 10 10
15 10 5 0 12 -4 15 -10z"/>
<path d="M6987 5274 c-15 -15 -7 -73 12 -83 10 -6 22 -7 26 -3 4 4 5 -3 2 -15
-4 -19 -1 -23 20 -23 17 0 22 4 16 13 -4 6 -8 35 -8 62 0 48 -2 50 -31 53 -16
2 -33 0 -37 -4z m43 -40 c0 -24 -4 -34 -12 -32 -24 8 -22 68 2 68 5 0 10 -16
10 -36z"/>
<path d="M7355 5235 c0 -34 4 -45 15 -45 12 0 15 8 12 35 -3 28 -1 35 13 35
14 0 16 -7 13 -35 -3 -28 0 -35 13 -35 15 0 18 18 10 83 -1 4 -18 7 -39 7
l-38 0 1 -45z"/>
<path d="M7455 5235 c0 -33 4 -45 15 -45 12 0 14 10 12 45 -5 60 -28 60 -27 0z"/>
<path d="M8027 5273 c-4 -3 -7 -21 -7 -40 0 -26 5 -36 23 -42 23 -9 47 -4 47
8 0 4 -10 7 -21 7 -12 -1 -24 5 -26 12 -3 8 6 12 26 12 32 0 41 16 19 38 -13
13 -50 16 -61 5z m43 -13 c0 -5 -7 -10 -16 -10 -8 0 -12 5 -9 10 3 6 10 10 16
10 5 0 9 -4 9 -10z"/>
<path d="M8105 5234 c0 -39 2 -44 23 -44 16 0 21 4 16 12 -15 24 -11 51 8 56
29 7 21 20 -14 20 -32 0 -33 -1 -33 -44z"/>
<path d="M8185 5235 c0 -33 4 -45 15 -45 12 0 14 10 12 45 -5 60 -28 60 -27 0z"/>
<path d="M8232 5258 c0 -59 7 -68 46 -68 l37 0 -3 45 c-3 29 -9 45 -17 45 -10
0 -12 -10 -8 -35 4 -28 2 -35 -11 -35 -12 0 -16 9 -16 35 0 24 -5 35 -14 35
-9 0 -15 -9 -14 -22z"/>
<path d="M4486 5173 c-20 -20 28 -94 52 -79 6 3 12 0 15 -8 8 -20 -27 -9 -49
15 -23 25 -34 24 -34 -4 0 -13 13 -36 30 -52 27 -26 31 -27 47 -13 20 18 63
41 63 34 0 -2 -16 -13 -35 -25 -19 -11 -35 -27 -35 -36 0 -10 -11 -3 -31 20
-17 19 -35 35 -40 35 -20 0 -7 -43 24 -76 l32 -35 47 43 c48 44 50 51 39 127
-1 2 -9 -3 -18 -10 -14 -11 -14 -9 1 9 15 18 17 25 7 35 -6 6 -15 12 -19 13
-4 0 -16 5 -26 9 -13 6 -21 5 -24 -3 -2 -8 -9 -9 -21 -2 -10 5 -21 6 -25 3z
m39 -27 c7 3 15 1 18 -3 10 -17 -32 -12 -44 5 -11 14 -11 15 0 5 7 -6 19 -9
26 -7z"/>
<path d="M1577 5083 c-4 -3 -7 -10 -7 -15 0 -4 599 -8 1331 -8 1060 0 1330 3
1327 13 -4 9 -279 13 -1325 15 -726 1 -1323 -1 -1326 -5z"/>
<path d="M5750 5075 c0 -13 150 -15 1328 -13 878 2 1326 6 1325 13 -2 7 -455
11 -1328 13 -1175 2 -1325 0 -1325 -13z"/>
<path d="M4920 4975 c-35 -36 -71 -65 -80 -65 -8 0 -28 -9 -44 -19 -16 -11
-34 -17 -40 -15 -7 3 -30 -3 -51 -12 -34 -14 -37 -17 -21 -26 13 -7 22 -5 37
8 12 10 19 13 20 6 1 -7 3 -16 4 -22 1 -5 3 -13 4 -17 0 -3 10 2 21 12 19 18
20 17 20 -1 0 -16 18 -26 100 -52 l99 -32 93 30 c51 17 98 37 105 46 9 12 15
13 30 3 16 -9 18 -21 15 -68 -3 -54 15 -122 37 -136 17 -10 62 60 57 88 -6 33
-31 85 -56 117 -17 21 -21 23 -30 10 -8 -13 -10 -13 -10 1 0 25 12 30 31 13
12 -11 23 -13 34 -7 13 8 9 13 -24 27 -21 10 -43 16 -48 13 -5 -3 -22 3 -39
14 -16 10 -36 19 -44 19 -9 0 -45 29 -80 65 -35 36 -67 65 -70 65 -3 0 -35
-29 -70 -65z"/>
<path d="M4570 4979 l-31 -32 22 -23 c12 -13 26 -24 30 -24 10 0 29 57 29 86
0 32 -12 30 -50 -7z"/>
<path d="M4453 4950 c8 -66 13 -74 40 -55 29 20 47 19 47 -3 0 -10 12 -22 30
-29 17 -6 30 -7 30 -3 0 15 -132 140 -147 140 -3 0 -3 -23 0 -50z"/>
<path d="M689 4883 c2 -45 -1 -79 -8 -87 -9 -11 -6 -15 14 -18 26 -5 43 6 25
17 -5 3 -10 30 -9 58 l0 52 22 -59 c12 -32 27 -58 32 -58 6 0 19 24 30 53 l20
54 3 -43 c2 -24 -2 -50 -9 -58 -12 -15 -15 -14 88 -16 28 -1 37 3 39 17 1 10
10 25 19 34 16 15 17 14 13 -16 -5 -38 -4 -39 65 -35 51 3 54 5 49 28 -3 18 0
24 13 24 14 0 16 -6 12 -27 l-6 -28 65 0 c48 0 63 3 59 13 -5 13 15 52 26 52
8 0 5 -32 -5 -48 -5 -9 3 -12 30 -12 30 0 35 3 26 12 -16 16 -16 80 0 96 9 9
4 12 -26 12 -32 0 -36 -3 -32 -18 4 -12 -1 -26 -14 -37 -19 -17 -19 -17 -10
16 6 19 10 35 10 36 0 2 -29 3 -65 3 -65 0 -65 0 -59 -25 5 -19 2 -25 -11 -25
-13 0 -16 6 -11 25 6 25 6 25 -60 25 -50 0 -65 -3 -61 -13 3 -7 -4 -24 -15
-38 l-20 -24 6 38 c5 36 4 37 -25 37 -24 0 -29 -4 -25 -17 13 -45 11 -88 -4
-88 -11 0 -16 16 -20 68 -3 37 -1 72 4 77 14 14 4 19 -26 13 -22 -4 -30 -15
-46 -62 l-19 -56 -19 59 c-17 50 -24 59 -45 60 -24 1 -24 1 -20 -71z m349 -45
c-4 -59 -28 -63 -28 -4 0 35 4 46 16 46 12 0 14 -9 12 -42z m140 0 c-4 -59
-28 -63 -28 -4 0 35 4 46 16 46 12 0 14 -9 12 -42z"/>
<path d="M2905 4950 c-3 -5 -1 -10 4 -10 6 0 11 -9 11 -20 0 -13 -7 -20 -18
-20 -26 0 -52 -32 -52 -63 0 -31 35 -71 56 -63 17 7 19 -15 2 -32 -9 -9 -2
-12 32 -12 34 0 41 3 32 12 -14 14 -16 42 -2 33 15 -9 50 13 60 38 7 17 9 18
9 5 1 -26 45 -51 73 -42 46 14 61 61 32 102 -25 35 -103 24 -105 -16 0 -13 -3
-11 -11 6 -7 13 -24 26 -40 29 -23 4 -28 11 -28 34 0 24 -4 29 -24 29 -14 0
-28 -4 -31 -10z m15 -115 c0 -35 -3 -43 -15 -39 -15 6 -21 64 -8 77 16 16 23
4 23 -38z m68 3 c2 -25 -2 -37 -12 -41 -13 -5 -16 2 -16 39 0 55 23 57 28 2z
m130 7 c1 -17 -2 -36 -7 -44 -15 -23 -31 -2 -31 40 0 33 3 40 18 37 11 -2 18
-14 20 -33z"/>
<path d="M7051 4950 c-59 -14 -53 -79 9 -104 43 -17 50 -30 24 -44 -22 -12
-54 -4 -54 14 0 8 -4 14 -10 14 -5 0 -10 -11 -10 -25 0 -20 6 -25 34 -30 43
-9 73 1 87 26 17 32 1 59 -48 80 -47 20 -53 42 -13 47 14 3 29 -3 37 -14 11
-15 13 -15 19 -1 3 9 3 20 0 25 -8 13 -46 19 -75 12z"/>
<path d="M7140 4950 c0 -5 5 -10 10 -10 6 0 10 -32 10 -75 0 -46 -4 -75 -11
-75 -5 0 -8 -4 -4 -9 3 -5 18 -9 34 -9 27 1 28 2 23 49 -4 42 -2 49 13 49 15
0 17 -7 13 -49 -5 -48 -4 -50 22 -49 26 1 27 2 22 52 -5 61 -18 79 -49 73 -20
-4 -23 0 -23 29 0 31 -3 34 -30 34 -16 0 -30 -4 -30 -10z"/>
<path d="M8404 4952 c-18 -12 -43 -71 -33 -78 5 -3 9 -23 9 -45 0 -33 -3 -40
-17 -37 -13 2 -17 11 -15 29 2 14 -1 37 -7 51 -9 23 -15 26 -60 26 -49 0 -74
-13 -55 -27 13 -9 16 -69 4 -76 -19 -11 -10 -22 18 -23 27 -1 28 1 28 46 -1
35 3 47 14 47 11 0 15 -12 14 -47 l0 -46 64 1 c35 0 65 5 68 9 3 4 0 8 -5 8
-15 0 -14 73 2 89 10 11 10 14 0 18 -15 5 -18 43 -4 43 5 0 11 -6 14 -12 3
-10 7 -10 17 -1 25 23 -25 47 -56 25z"/>
<path d="M9185 4950 c-3 -5 -1 -10 5 -10 9 0 11 -25 9 -83 l-4 -83 27 -2 c26
-2 27 0 22 30 l-6 33 29 -34 c22 -25 34 -33 48 -27 17 6 17 7 -1 26 -44 45
-45 48 -19 68 27 22 23 32 -13 32 -17 0 -22 -4 -19 -14 3 -8 -1 -20 -9 -26
-12 -11 -14 -4 -14 44 0 53 -1 56 -24 56 -14 0 -28 -4 -31 -10z"/>
<path d="M5778 4879 c3 -44 0 -75 -7 -82 -6 -6 -11 -15 -11 -19 0 -12 48 -10
55 2 3 6 1 10 -4 10 -7 0 -11 23 -10 58 l1 57 21 -63 c11 -34 26 -61 31 -59 6
2 20 28 31 58 l20 54 3 -49 c2 -32 -1 -52 -10 -57 -17 -10 9 -21 40 -16 23 3
43 17 24 17 -6 0 -12 28 -14 70 -2 39 0 70 5 70 4 0 7 5 7 10 0 6 -13 10 -29
10 -27 0 -31 -5 -49 -57 l-19 -58 -18 58 c-16 50 -22 57 -45 57 -26 0 -26 0
-22 -71z"/>
<path d="M5990 4930 c0 -13 7 -20 20 -20 13 0 20 7 20 20 0 13 -7 20 -20 20
-13 0 -20 -7 -20 -20z"/>
<path d="M6217 4943 c-14 -13 -6 -33 13 -33 13 0 20 7 20 20 0 19 -20 27 -33
13z"/>
<path d="M6597 4943 c-14 -13 -6 -33 13 -33 13 0 20 7 20 20 0 19 -20 27 -33
13z"/>
<path d="M7786 4935 c-3 -9 1 -18 10 -22 19 -7 39 11 30 26 -10 16 -33 13 -40
-4z"/>
<path d="M8138 4938 c15 -15 16 -148 1 -148 -5 0 -7 -4 -4 -10 7 -11 75 -10
75 2 0 4 -4 8 -10 8 -14 0 -13 133 2 148 9 9 2 12 -32 12 -34 0 -41 -3 -32
-12z"/>
<path d="M9125 4940 c-4 -7 -3 -16 3 -22 14 -14 45 -2 40 15 -6 16 -34 21 -43
7z"/>
<path d="M7572 4924 c4 -21 22 -23 26 -1 2 10 -3 17 -13 17 -10 0 -15 -6 -13
-16z"/>
<path d="M7617 4934 c-9 -10 2 -24 19 -24 8 0 14 7 14 15 0 15 -21 21 -33 9z"/>
<path d="M7977 4933 c-13 -12 -7 -23 13 -23 11 0 20 7 20 15 0 15 -21 21 -33
8z"/>
<path d="M8020 4926 c0 -10 9 -16 21 -16 24 0 21 23 -4 28 -10 2 -17 -3 -17
-12z"/>
<path d="M6397 4907 c-17 -27 -8 -114 14 -128 19 -12 51 -7 57 9 3 9 -3 12
-14 10 -15 -2 -20 4 -22 33 -3 30 1 37 18 42 23 6 19 27 -6 27 -8 0 -14 7 -14
15 0 22 -16 18 -33 -8z"/>
<path d="M9026 4906 c-10 -15 -12 -27 -6 -31 6 -3 10 -23 10 -44 0 -49 12 -58
80 -58 61 -1 74 3 63 20 -3 6 -5 33 -4 59 2 41 0 48 -16 48 -26 0 -48 -16 -34
-24 6 -4 11 -25 11 -47 0 -38 -2 -39 -27 -36 -23 3 -29 10 -34 40 -5 29 -2 36
13 40 24 7 23 27 -2 27 -13 0 -18 5 -14 15 10 25 -22 17 -40 -9z"/>
<path d="M4617 4903 c-13 -15 -14 -27 -5 -72 8 -38 8 -62 1 -82 -9 -23 -8 -31
8 -45 17 -15 19 -15 19 -1 0 8 -6 17 -12 20 -10 4 -10 7 0 18 7 8 13 10 12 4
-7 -32 3 -23 25 23 29 63 29 62 12 62 -8 0 -18 -17 -24 -37 l-11 -38 5 40 c3
22 5 42 5 45 0 84 -6 94 -35 63z"/>
<path d="M5325 4888 c-6 -34 8 -116 26 -149 5 -11 6 -19 1 -19 -9 0 -32 66
-32 94 0 9 -7 16 -15 16 -20 0 -19 -6 10 -65 13 -27 25 -56 25 -64 0 -11 3
-11 15 -1 14 12 14 36 1 70 -4 9 0 38 8 65 14 44 14 51 -1 67 -23 26 -31 22
-38 -14z"/>
<path d="M1332 4893 c-21 -8 -33 -50 -22 -77 12 -32 43 -48 75 -40 34 8 32 24
-4 24 -31 0 -44 23 -34 60 6 23 16 25 43 8 16 -10 24 -10 40 0 19 11 20 10 20
-27 0 -22 -5 -43 -12 -47 -16 -10 19 -22 50 -16 16 3 20 8 13 15 -14 14 -14
87 -1 87 6 0 10 -4 10 -10 0 -5 5 -10 10 -10 6 0 10 9 10 20 0 18 -6 20 -92
19 -51 -1 -99 -4 -106 -6z"/>
<path d="M1546 4878 c-39 -55 5 -118 70 -102 34 9 30 22 -8 26 -45 4 -49 28
-4 28 43 0 53 13 32 45 -21 33 -69 34 -90 3z m62 -16 c2 -7 -6 -12 -17 -12
-21 0 -27 11 -14 24 9 9 26 2 31 -12z"/>
<path d="M1640 4889 c0 -5 4 -9 10 -9 11 0 8 -119 -3 -137 -6 -10 2 -13 29
-13 30 0 35 3 26 12 -15 15 -16 42 -2 33 18 -11 51 6 62 33 10 27 10 27 18 5
12 -29 44 -45 75 -37 34 8 32 24 -4 24 -33 0 -47 25 -36 60 6 20 35 29 35 11
0 -12 41 -11 58 2 9 7 12 -1 12 -37 0 -30 -4 -46 -12 -47 -7 0 -4 -4 6 -8 28
-11 70 -1 57 12 -14 14 -14 87 -1 87 6 0 10 -4 10 -10 0 -5 5 -10 10 -10 6 0
10 9 10 20 0 18 -7 20 -97 19 -103 -1 -123 -8 -124 -43 0 -19 -1 -19 -12 4 -6
14 -15 28 -20 31 -14 10 -107 8 -107 -2z m85 -50 c0 -24 -5 -35 -17 -37 -14
-3 -18 4 -18 31 0 18 3 37 7 41 15 14 28 -2 28 -35z"/>
<path d="M2015 4837 l0 -63 45 1 c25 1 51 4 58 9 14 8 16 42 3 50 -5 3 -7 15
-4 27 7 27 -11 39 -62 39 l-40 0 0 -63z m67 28 c0 -5 -5 -11 -11 -13 -6 -2
-11 4 -11 13 0 9 5 15 11 13 6 -2 11 -8 11 -13z m8 -50 c0 -8 -7 -15 -15 -15
-8 0 -15 7 -15 15 0 8 7 15 15 15 8 0 15 -7 15 -15z"/>
<path d="M2153 4888 c-30 -39 -20 -91 21 -110 20 -9 30 -8 50 6 56 36 37 116
-28 116 -18 0 -38 -6 -43 -12z m61 -24 c10 -26 7 -51 -8 -63 -12 -10 -16 -9
-23 6 -5 10 -8 24 -7 31 1 6 2 19 3 27 1 20 27 19 35 -1z"/>
<path d="M2304 4889 c-3 -6 -1 -16 6 -22 10 -9 14 -9 17 1 6 17 33 15 33 -2 0
-8 -6 -16 -12 -19 -9 -3 -7 -9 6 -19 24 -19 6 -33 -30 -24 -32 8 -31 -11 1
-26 28 -13 75 2 75 24 0 6 6 4 13 -6 9 -12 29 -20 58 -21 50 -3 63 1 52 18 -4
7 -6 24 -4 39 4 43 -15 68 -53 68 -37 0 -66 -23 -45 -35 6 -4 15 -2 19 5 9 14
40 7 40 -10 0 -5 -11 -10 -24 -10 -13 0 -29 -7 -36 -15 -11 -13 -15 -13 -21
-3 -5 7 -6 21 -3 32 4 10 0 22 -7 27 -20 12 -77 11 -85 -2z m176 -74 c0 -8 -7
-15 -15 -15 -8 0 -15 7 -15 15 0 8 7 15 15 15 8 0 15 -7 15 -15z"/>
<path d="M2575 4843 c0 -42 4 -60 15 -64 21 -8 40 0 34 15 -3 7 5 21 17 32
l21 19 -4 -34 -3 -33 58 0 c75 1 73 0 59 14 -19 19 -14 38 9 38 17 0 20 -4 15
-24 -5 -20 -1 -25 19 -29 26 -4 43 7 26 17 -5 3 -8 14 -6 24 16 82 16 82 -15
82 -27 0 -30 -3 -24 -25 5 -21 3 -25 -15 -25 -23 0 -28 19 -9 38 9 9 -3 12
-56 12 -51 0 -67 -3 -63 -13 2 -7 -4 -24 -16 -37 l-20 -25 6 38 c5 35 4 37
-21 37 -27 0 -27 -2 -27 -57z m153 -5 c-2 -28 -8 -43 -17 -43 -9 0 -14 14 -15
43 -1 35 1 42 16 42 16 0 18 -7 16 -42z"/>
<path d="M3159 4887 c15 -15 14 -130 -1 -145 -9 -9 -4 -12 24 -12 32 0 35 2
30 25 -3 20 -1 24 11 19 21 -8 57 30 57 62 0 50 -15 63 -76 63 -42 0 -54 -3
-45 -12z m79 -50 c2 -28 -1 -37 -12 -37 -12 0 -16 11 -16 41 0 52 24 48 28 -4z"/>
<path d="M3280 4891 c0 -5 5 -11 10 -13 7 -2 7 -19 2 -50 -8 -41 -7 -47 9 -51
20 -5 33 5 22 17 -10 10 -12 36 -3 36 4 0 11 -11 14 -25 9 -34 24 -31 42 8
l14 32 -2 -32 c-2 -18 1 -33 5 -33 42 -1 42 -1 42 60 0 58 -1 61 -24 58 -18
-2 -28 -13 -36 -38 l-12 -35 -16 38 c-13 29 -22 37 -41 37 -15 0 -26 -4 -26
-9z"/>
<path d="M3457 4893 c-13 -12 -7 -33 8 -33 8 0 15 5 15 10 0 6 7 10 15 10 8 0
15 -7 15 -15 0 -8 -9 -15 -19 -15 -19 0 -51 -24 -51 -38 0 -4 4 -13 9 -21 11
-16 108 -25 117 -10 3 5 0 9 -5 9 -6 0 -11 19 -11 43 0 24 -5 48 -12 55 -13
13 -70 17 -81 5z m53 -78 c0 -8 -7 -15 -15 -15 -16 0 -20 12 -8 23 11 12 23 8
23 -8z"/>
<path d="M3560 4880 c0 -11 5 -20 10 -20 6 0 10 5 10 10 0 6 5 10 10 10 14 0
13 -77 -1 -86 -18 -11 8 -21 42 -16 22 3 27 8 20 15 -6 6 -11 29 -11 50 0 36
2 38 17 26 13 -11 17 -11 20 -1 3 6 8 12 12 12 10 0 7 -72 -2 -87 -4 -7 5 -13
24 -15 28 -4 51 6 30 14 -6 1 -1 14 10 28 l20 25 -3 -32 c-4 -27 -1 -32 22
-35 26 -4 26 -3 22 49 -4 44 -2 53 12 53 10 0 16 -9 16 -24 0 -30 23 -50 50
-41 22 7 28 -9 8 -22 -15 -9 62 -20 104 -14 23 3 25 5 15 22 -6 10 -7 22 -3
26 5 4 11 2 13 -4 11 -30 40 -56 57 -50 15 6 14 10 -9 41 -27 36 -26 56 1 56
20 0 12 24 -9 28 -10 2 -21 -7 -28 -22 -7 -14 -16 -26 -21 -26 -12 0 -10 24 4
38 9 9 -4 12 -60 12 -41 0 -72 -4 -72 -10 0 -5 4 -10 8 -10 4 0 8 -9 8 -20 0
-13 -7 -20 -19 -20 -16 0 -18 5 -13 30 l6 30 -61 0 c-46 0 -60 -3 -56 -13 3
-7 -4 -24 -14 -38 l-19 -24 0 28 c0 15 5 27 11 27 5 0 8 4 5 9 -4 5 -47 10
-96 10 -83 1 -90 -1 -90 -19z m415 -43 c-2 -53 -28 -60 -33 -9 -4 43 3 63 21
56 8 -3 13 -20 12 -47z"/>
<path d="M4106 4884 c-24 -24 -20 -80 6 -98 30 -21 54 -20 78 4 25 25 26 72 2
93 -23 21 -66 22 -86 1z m59 -49 c0 -29 -4 -40 -15 -40 -11 0 -16 13 -18 43
-3 38 -1 43 15 40 14 -2 18 -13 18 -43z"/>
<path d="M4468 4860 c-24 -22 -38 -40 -31 -40 7 0 23 11 37 25 14 14 32 25 41
25 8 0 15 7 15 15 0 24 -16 18 -62 -25z"/>
<path d="M5450 4885 c0 -8 5 -15 12 -15 7 0 24 -12 40 -27 15 -14 31 -23 35
-19 7 7 -64 75 -79 76 -5 0 -8 -7 -8 -15z"/>
<path d="M5989 4898 c0 -2 -1 -31 -2 -66 -2 -62 -2 -62 27 -62 22 0 27 4 22
16 -3 9 -6 38 -6 65 0 42 -3 49 -20 49 -11 0 -20 -1 -21 -2z"/>
<path d="M6059 4890 c-8 -6 -8 -9 0 -14 14 -9 15 -86 0 -86 -5 0 -7 -4 -4 -10
8 -13 52 -13 60 -1 3 5 2 12 -3 15 -4 2 -7 20 -7 38 1 24 6 34 19 36 17 4 18
-1 14 -47 -5 -50 -5 -51 22 -51 27 0 27 1 22 48 -7 71 -15 80 -66 80 -25 -1
-50 -4 -57 -8z"/>
<path d="M6215 4892 c-5 -4 -10 -33 -10 -64 0 -55 1 -57 28 -56 20 1 26 5 22
15 -3 8 -5 37 -5 64 0 48 -10 60 -35 41z"/>
<path d="M6285 4884 c-21 -21 -16 -34 25 -61 27 -19 30 -24 15 -29 -10 -4 -21
-1 -26 7 -6 11 -11 11 -20 2 -20 -20 34 -40 66 -25 35 16 32 49 -5 70 -16 9
-30 20 -30 25 0 11 28 9 35 -3 4 -6 11 -8 16 -4 16 9 -11 34 -37 34 -12 0 -30
-7 -39 -16z"/>
<path d="M6489 4895 c0 0 -1 -28 -2 -62 -2 -61 -2 -62 26 -61 25 1 52 18 28
18 -6 0 -11 15 -11 33 0 25 6 35 26 44 31 14 39 0 31 -56 -4 -36 -3 -38 24
-39 16 0 31 4 34 9 4 5 1 9 -4 9 -7 0 -11 22 -11 53 l0 53 -70 0 c-38 0 -70 0
-71 -1z"/>
<path d="M6673 4893 c-15 -5 -18 -33 -4 -33 6 0 13 5 16 10 9 15 35 12 35 -4
0 -7 -13 -16 -29 -19 -33 -7 -45 -30 -31 -57 8 -14 20 -18 59 -17 27 1 53 6
57 10 4 4 2 7 -4 7 -7 0 -12 17 -12 43 0 24 -5 48 -12 55 -12 12 -52 15 -75 5z
m47 -78 c0 -8 -7 -15 -15 -15 -16 0 -20 12 -8 23 11 12 23 8 23 -8z"/>
<path d="M6846 4878 c-42 -59 11 -128 78 -102 22 9 20 27 -3 21 -20 -5 -51 9
-51 23 0 6 18 10 40 10 44 0 50 11 24 48 -10 14 -26 22 -44 22 -18 0 -34 -8
-44 -22z m62 -16 c2 -7 -6 -12 -17 -12 -21 0 -27 11 -14 24 9 9 26 2 31 -12z"/>
<path d="M7307 4882 c-55 -60 26 -149 83 -92 25 25 26 72 2 93 -24 22 -65 21
-85 -1z m58 -48 c0 -28 -4 -39 -15 -39 -16 0 -26 45 -16 72 11 28 31 7 31 -33z"/>
<path d="M7436 4878 c-32 -45 -5 -114 40 -105 24 4 34 -16 14 -28 -19 -12 -10
-22 18 -23 35 0 45 7 33 21 -5 7 -9 42 -8 79 2 73 -1 78 -53 78 -18 0 -35 -8
-44 -22z m61 -42 c2 -30 -1 -37 -15 -34 -18 3 -28 39 -18 65 10 26 30 8 33
-31z"/>
<path d="M7570 4880 c-51 -51 5 -130 74 -104 22 9 20 27 -3 21 -20 -5 -51 9
-51 23 0 6 18 10 40 10 29 0 40 4 40 15 0 22 -37 55 -60 55 -11 0 -29 -9 -40
-20z m58 -18 c2 -7 -6 -12 -17 -12 -21 0 -27 11 -14 24 9 9 26 2 31 -12z"/>
<path d="M7681 4891 c-9 -6 -10 -11 -2 -15 14 -9 15 -86 0 -86 -5 0 -7 -4 -4
-10 3 -5 19 -10 36 -10 28 0 37 9 22 24 -4 4 -8 20 -8 37 -1 21 4 29 17 29 9
0 20 5 23 10 4 6 11 8 16 5 13 -8 11 -85 -2 -85 -26 0 4 -17 31 -18 24 -1 30
3 26 14 -3 9 -6 38 -6 64 l0 49 -42 -1 c-24 -1 -49 -6 -55 -11 -9 -6 -13 -6
-13 2 0 13 -19 14 -39 2z"/>
<path d="M7862 4888 c-21 -21 -13 -47 18 -63 17 -9 30 -20 30 -25 0 -13 -27
-13 -35 0 -9 15 -25 12 -25 -5 0 -20 46 -30 76 -16 36 16 29 52 -13 70 -18 8
-33 18 -33 23 0 13 38 9 43 -4 2 -7 8 -10 12 -6 4 4 5 14 2 23 -8 18 -58 20
-75 3z"/>
<path d="M7977 4882 c-52 -57 19 -144 79 -96 18 15 18 15 -5 10 -25 -5 -51 8
-51 25 0 5 16 9 35 9 31 0 35 3 35 25 0 43 -63 61 -93 27z m57 -17 c4 -10 -1
-15 -14 -15 -11 0 -20 7 -20 15 0 8 6 15 14 15 8 0 16 -7 20 -15z"/>
<path d="M8466 4884 c-24 -24 -20 -80 6 -98 30 -21 54 -20 78 4 25 25 26 72 2
93 -23 21 -66 22 -86 1z m59 -50 c0 -28 -4 -39 -15 -39 -16 0 -26 45 -16 72
11 28 31 7 31 -33z"/>
<path d="M8590 4896 c-1 -1 -2 -29 -3 -63 l-2 -62 33 1 c17 1 32 5 32 10 0 4
-4 8 -10 8 -5 0 -10 16 -10 35 0 28 4 35 20 35 11 0 20 5 20 10 0 6 5 10 11
10 8 0 10 -18 7 -54 -4 -54 -4 -55 22 -54 26 1 27 3 22 49 -4 41 -2 49 12 49
15 0 17 -8 15 -47 -3 -45 -2 -48 22 -50 25 -2 26 0 21 48 -4 41 -2 49 12 49
15 0 17 -8 15 -47 -3 -46 -2 -48 24 -49 15 -1 30 3 33 7 3 5 0 9 -5 9 -6 0
-11 21 -11 50 0 28 -3 51 -7 51 -9 2 -273 6 -273 5z"/>
<path d="M8903 4885 c-7 -21 4 -32 19 -17 16 16 38 15 38 -2 0 -7 -13 -16 -29
-19 -33 -7 -49 -40 -32 -61 7 -8 32 -14 60 -14 l48 0 -5 52 c-2 28 -9 57 -14
64 -15 18 -77 15 -85 -3z m57 -70 c0 -8 -7 -15 -15 -15 -16 0 -20 12 -8 23 11
12 23 8 23 -8z"/>
<path d="M9336 4878 c-42 -59 11 -128 78 -102 22 9 20 27 -3 21 -20 -5 -51 9
-51 23 0 6 18 10 40 10 44 0 50 11 24 48 -10 14 -26 22 -44 22 -18 0 -34 -8
-44 -22z m62 -16 c2 -7 -6 -12 -17 -12 -21 0 -27 11 -14 24 9 9 26 2 31 -12z"/>
<path d="M4482 4837 c-30 -32 -29 -77 3 -107 20 -19 32 -22 65 -17 22 3 38 2
35 -3 -3 -4 2 -13 10 -20 8 -7 15 -18 15 -24 0 -12 111 -126 123 -126 17 0 4
26 -30 60 -95 92 -119 126 -103 145 6 8 10 26 8 40 l-3 27 -30 -23 -30 -23 29
32 c37 40 28 52 -16 21 l-33 -23 23 25 c30 34 28 39 -11 39 -22 0 -41 -8 -55
-23z"/>
<path d="M4700 4811 c-26 -38 -50 -95 -50 -121 0 -19 84 -120 99 -120 4 0 15
13 24 30 19 32 23 87 12 168 -6 43 -10 51 -20 42 -10 -8 -12 -26 -8 -59 4 -36
0 -59 -16 -96 -12 -26 -23 -46 -26 -43 -3 2 5 22 16 44 17 32 19 49 14 99 -4
33 -7 66 -8 73 -1 20 -14 14 -37 -17z"/>
<path d="M5195 4798 c-15 -68 -13 -146 5 -187 18 -38 21 -41 40 -29 25 16 25
15 0 63 -14 27 -20 59 -20 102 0 62 -15 93 -25 51z"/>
<path d="M4797 4748 c7 -67 9 -69 38 -58 33 13 32 13 32 -5 0 -8 -4 -12 -8 -9
-5 2 -20 2 -34 -2 -20 -5 -23 -9 -13 -15 8 -5 9 -9 2 -9 -7 0 -15 -12 -19 -27
-3 -15 -11 -31 -17 -34 -6 -4 -8 -13 -5 -21 13 -36 258 -78 278 -47 5 8 9 9 9
3 0 -11 62 1 123 25 25 10 27 13 15 33 -13 25 -19 44 -21 70 -1 11 -13 20 -32
24 -16 3 -34 10 -40 14 -5 4 -20 6 -32 5 -12 -1 -20 2 -17 6 2 4 -8 12 -23 17
-16 6 -23 11 -17 11 6 1 42 -10 80 -23 38 -14 70 -23 72 -21 2 2 6 27 9 56 5
46 4 51 -11 46 -9 -4 -69 -23 -134 -43 -64 -20 -122 -41 -129 -46 -7 -5 -14
-5 -18 2 -3 5 0 10 7 10 7 1 27 7 43 14 l30 13 -80 26 c-44 15 -83 27 -87 27
-3 0 -4 -19 -1 -42z m200 -64 c-3 -3 -12 -4 -19 -1 -8 3 -5 6 6 6 11 1 17 -2
13 -5z m-140 -30 c-3 -3 -12 -4 -19 -1 -8 3 -5 6 6 6 11 1 17 -2 13 -5z m40
-30 c-3 -3 -12 -4 -19 -1 -8 3 -5 6 6 6 11 1 17 -2 13 -5z m160 0 c-3 -3 -12
-4 -19 -1 -8 3 -5 6 6 6 11 1 17 -2 13 -5z m-230 -20 c-3 -3 -12 -4 -19 -1 -8
3 -5 6 6 6 11 1 17 -2 13 -5z m76 -31 c-7 -2 -19 -2 -25 0 -7 3 -2 5 12 5 14
0 19 -2 13 -5z m234 -19 c-3 -3 -12 -4 -19 -1 -8 3 -5 6 6 6 11 1 17 -2 13 -5z"/>
<path d="M4439 4742 c-18 -3 85 -112 106 -112 7 0 23 8 36 19 20 16 21 21 10
35 -8 10 -29 16 -53 16 -27 0 -46 7 -61 23 -13 12 -30 21 -38 19z"/>
<path d="M5500 4725 c-17 -18 -34 -25 -61 -25 -49 0 -69 -23 -44 -50 27 -30
43 -25 105 34 41 39 53 56 43 60 -19 8 -17 9 -43 -19z"/>
<path d="M5307 4635 c-83 -90 -90 -122 -11 -51 43 38 101 123 91 132 -2 2 -38
-34 -80 -81z"/>
<path d="M5838 4673 c-13 -3 -16 -11 -12 -33 6 -25 3 -29 -22 -32 -35 -4 -53
-44 -38 -85 9 -27 12 -28 95 -31 l85 -3 0 47 c-1 59 20 71 26 14 2 -22 0 -40
-4 -40 -5 0 -8 -4 -8 -10 0 -5 16 -10 36 -10 28 0 34 3 26 13 -6 7 -12 33 -14
57 -3 43 -4 45 -35 45 -32 0 -33 1 -33 38 0 32 -3 38 -16 33 -9 -3 -19 -6 -22
-6 -4 0 -7 -35 -7 -77 0 -108 -19 -106 -23 2 -1 47 -6 84 -10 84 -4 -1 -15 -3
-24 -6z m-8 -124 c0 -28 -4 -39 -12 -37 -24 8 -22 78 2 78 5 0 10 -18 10 -41z"/>
<path d="M6448 4673 c-19 -5 -25 -23 -8 -23 6 0 10 -9 10 -19 0 -14 -8 -21
-27 -23 -40 -4 -61 -45 -44 -86 l13 -30 87 -1 87 -1 0 43 c-1 23 4 43 9 44 6
1 10 -17 9 -42 0 -42 1 -45 26 -45 25 0 26 3 26 45 -1 24 4 44 9 44 6 0 10
-20 9 -44 0 -42 1 -45 27 -45 26 0 26 1 21 48 -2 26 -9 52 -14 58 -10 14 -175
16 -184 3 -3 -5 0 -9 5 -9 13 0 15 -76 3 -84 -19 -12 -27 14 -27 88 0 79 -4
88 -37 79z m2 -123 c0 -28 -4 -40 -14 -40 -18 0 -30 33 -21 60 12 37 35 23 35
-20z"/>
<path d="M4043 4654 c-8 -20 17 -36 34 -22 10 8 10 14 2 24 -15 18 -28 18 -36
-2z"/>
<path d="M6262 4653 c-5 -10 -17 -46 -27 -80 -10 -35 -22 -63 -27 -63 -4 0 -8
-4 -8 -10 0 -5 14 -10 32 -10 24 0 29 3 21 11 -17 17 -4 39 22 39 30 0 41 -16
25 -35 -11 -13 -6 -15 29 -15 36 0 55 13 33 22 -5 2 -20 37 -34 78 -25 77 -48
99 -66 63z m27 -70 c1 -7 -6 -13 -14 -13 -17 0 -18 4 -8 39 6 23 7 23 14 5 4
-10 8 -25 8 -31z"/>
<path d="M6733 4654 c-8 -21 13 -42 28 -27 13 13 5 43 -11 43 -6 0 -13 -7 -17
-16z"/>
<path d="M6961 4660 c-14 -8 -8 -40 7 -40 5 0 15 6 21 14 15 17 -8 39 -28 26z"/>
<path d="M7557 4654 c-14 -14 -7 -35 11 -32 9 2 17 10 17 17 0 16 -18 25 -28
15z"/>
<path d="M7607 4653 c-4 -3 -7 -12 -7 -20 0 -15 26 -18 34 -4 7 11 -18 33 -27
24z"/>
<path d="M4567 4625 c-30 -28 -36 -55 -12 -55 8 0 15 6 15 14 0 8 9 24 21 37
l21 24 -16 -25 c-21 -32 -20 -64 1 -97 l17 -25 23 28 c13 16 23 25 23 19 0 -5
-16 -28 -35 -50 -39 -45 -36 -54 35 -94 45 -25 47 -23 24 20 -14 29 -14 32 3
51 18 20 18 20 -14 13 -18 -3 -33 -3 -33 2 0 4 12 9 26 10 15 0 33 8 42 16 13
14 9 22 -47 76 -33 34 -62 61 -64 61 -1 0 -15 -11 -30 -25z m61 -75 c-7 -11
-17 -20 -22 -20 -5 0 -1 9 9 20 10 11 20 20 22 20 2 0 -2 -9 -9 -20z"/>
<path d="M5315 4589 l-60 -60 24 -20 c41 -33 84 -21 54 15 -14 17 -13 16 9 -2
14 -13 29 -19 32 -14 3 5 -3 17 -14 27 -11 10 -20 23 -20 28 0 6 10 1 23 -11
38 -36 51 1 22 61 l-16 32 21 -24 c11 -13 20 -29 20 -37 0 -8 7 -14 15 -14 8
0 15 4 15 9 0 12 -49 71 -59 71 -4 0 -33 -27 -66 -61z"/>
<path d="M7140 4625 c0 -8 -4 -15 -9 -15 -11 0 -3 -77 11 -102 5 -11 20 -18
38 -18 34 0 40 15 10 23 -15 4 -20 14 -20 41 0 29 4 36 20 36 11 0 20 5 20 10
0 6 -9 10 -20 10 -11 0 -20 7 -20 15 0 8 -7 15 -15 15 -8 0 -15 -7 -15 -15z"/>
<path d="M7447 4615 c-10 -14 -13 -25 -7 -25 5 0 10 -17 10 -38 0 -21 5 -43
12 -50 14 -14 68 -16 68 -2 0 6 -9 10 -20 10 -17 0 -20 7 -20 40 0 29 4 40 15
40 8 0 15 5 15 10 0 6 -7 10 -15 10 -8 0 -15 7 -15 15 0 23 -23 17 -43 -10z"/>
<path d="M1020 4613 c-64 -23 -46 -123 23 -123 35 0 57 25 57 64 0 44 -40 73
-80 59z m38 -62 c3 -37 1 -42 -15 -39 -19 3 -30 46 -19 75 11 28 31 7 34 -36z"/>
<path d="M1590 4600 c-16 -16 -20 -17 -20 -5 0 12 -17 15 -92 15 l-93 0 3 -50
c3 -37 0 -50 -10 -50 -9 0 -12 14 -11 50 2 46 0 50 -21 50 -22 0 -23 -3 -18
-50 4 -43 2 -50 -13 -50 -14 0 -16 8 -13 50 3 48 2 50 -22 50 -24 0 -25 -3
-25 -60 l0 -60 100 0 c77 0 96 3 87 12 -15 15 -16 84 -2 93 6 3 10 -1 10 -9 0
-9 5 -16 10 -16 6 0 10 5 10 10 0 6 5 10 10 10 6 0 10 -18 10 -40 0 -22 -4
-40 -10 -40 -5 0 -10 -4 -10 -10 0 -5 18 -10 40 -10 22 0 40 5 40 10 0 6 -4
10 -10 10 -5 0 -10 18 -10 40 0 22 3 40 6 40 13 0 34 -30 34 -49 0 -40 48 -63
94 -45 27 10 18 22 -15 20 -48 -2 -47 21 1 26 33 3 40 0 40 -14 0 -22 33 -40
67 -36 37 4 42 28 6 25 -24 -2 -28 2 -31 26 -2 16 -1 36 2 44 5 13 9 13 22 2
20 -17 51 -22 59 -9 13 21 23 8 23 -30 0 -22 -3 -40 -9 -40 -5 0 -9 -4 -9 -10
0 -5 16 -10 35 -10 19 0 35 5 35 10 0 6 -4 10 -10 10 -5 0 -10 18 -10 40 0 38
12 52 25 30 10 -16 28 -11 21 6 -4 9 -2 13 5 8 7 -4 9 -26 7 -55 l-5 -49 47 0
c30 0 52 6 60 15 12 14 15 14 30 0 22 -20 64 -19 85 1 26 26 16 86 -17 102
-38 18 -77 1 -84 -38 -4 -16 -10 -27 -15 -24 -5 3 -6 16 -3 29 3 13 1 26 -6
30 -20 12 -213 6 -222 -8 -5 -8 -8 -8 -8 -1 0 17 -38 24 -66 13 -14 -5 -29
-19 -34 -31 -6 -17 -9 -18 -9 -6 -1 18 -37 48 -58 48 -7 0 -22 -9 -33 -20z
m46 -28 c-22 -5 -30 3 -21 18 5 8 11 7 22 -2 15 -12 14 -13 -1 -16z m482 -21
c3 -37 1 -42 -15 -39 -19 3 -30 46 -19 75 11 28 31 7 34 -36z m-118 30 c0 -5
-7 -11 -15 -15 -9 -3 -15 0 -15 9 0 8 7 15 15 15 8 0 15 -4 15 -9z m-2 -54 c2
-10 -3 -17 -12 -17 -10 0 -16 9 -16 21 0 24 23 21 28 -4z"/>
<path d="M2425 4607 c-10 -8 -15 -19 -11 -26 6 -9 12 -8 26 4 14 13 19 13 28
2 15 -17 6 -27 -24 -27 -29 0 -46 -29 -32 -53 6 -12 20 -18 36 -17 65 5 82 0
82 -20 0 -11 4 -20 9 -20 5 0 11 9 14 20 4 15 14 20 41 20 29 0 36 -4 36 -20
0 -11 5 -20 11 -20 6 0 13 9 16 20 3 13 14 20 29 20 21 0 23 4 19 33 l-5 32
12 -27 c16 -37 31 -35 51 5 l18 32 -5 -37 -5 -38 65 0 c59 0 65 2 59 19 -3 11
1 24 11 32 16 13 17 11 11 -18 l-6 -33 64 0 c64 0 65 1 59 24 -4 16 -1 25 12
30 14 5 16 2 11 -24 -6 -28 -4 -30 21 -30 27 0 28 2 27 52 0 35 4 53 14 56 11
4 13 -7 9 -52 l-5 -56 30 0 c20 0 28 4 24 13 -2 7 4 24 16 37 l20 25 -6 -37
c-5 -36 -4 -38 21 -38 26 0 27 2 27 60 0 59 -1 60 -27 60 -19 0 -26 -4 -22
-13 2 -7 -5 -22 -17 -33 l-22 -19 6 33 7 32 -64 0 c-59 0 -64 -2 -59 -20 4
-14 0 -20 -12 -20 -12 0 -16 6 -12 20 5 18 0 20 -60 20 -38 0 -62 -4 -58 -10
6 -10 -15 -50 -27 -50 -9 0 -6 30 5 48 6 9 -2 12 -29 12 -30 0 -35 -3 -26 -12
17 -17 16 -88 -2 -88 -17 0 -30 51 -21 80 5 16 2 20 -18 20 -19 0 -28 -8 -40
-37 l-14 -37 -12 37 c-10 28 -18 37 -35 37 -22 0 -23 -3 -18 -51 4 -46 3 -51
-14 -47 -23 4 -32 61 -13 84 10 12 2 14 -50 14 -57 0 -60 -1 -50 -18 15 -24
-1 -76 -24 -80 -14 -3 -17 5 -17 43 0 40 -3 47 -26 55 -33 13 -37 13 -59 -3z
m563 -63 c-2 -22 -7 -39 -13 -39 -12 0 -19 60 -10 83 10 28 27 -3 23 -44z
m-383 6 c0 -32 -4 -40 -19 -40 -12 0 -16 5 -12 16 3 9 6 27 6 40 0 13 6 24 13
24 7 0 12 -15 12 -40z m-125 -19 c0 -14 -18 -23 -30 -16 -6 4 -8 11 -5 16 8
12 35 12 35 0z"/>
<path d="M3292 4608 c-12 -6 -25 -23 -29 -36 -7 -31 15 -75 41 -80 25 -5 66 6
66 18 0 6 -11 8 -26 4 -17 -4 -29 -2 -35 7 -22 35 3 93 29 67 15 -15 52 -21
52 -8 0 6 5 10 10 10 14 0 12 -74 -2 -88 -9 -9 -3 -12 30 -12 23 0 42 5 42 10
0 6 -4 10 -10 10 -5 0 -10 18 -10 40 0 22 5 40 10 40 6 0 10 -4 10 -10 0 -5 5
-10 10 -10 6 0 10 8 10 17 0 9 3 13 8 9 10 -11 11 -136 0 -136 -4 0 -8 -4 -8
-10 0 -5 16 -10 35 -10 19 0 35 5 35 10 0 6 -4 10 -10 10 -5 0 -10 7 -10 15 0
9 9 15 24 15 14 0 31 9 39 20 l14 21 6 -21 c4 -17 12 -21 39 -20 18 1 70 2
116 1 75 -1 82 -3 82 -21 0 -11 4 -20 9 -20 5 0 11 9 14 20 4 15 14 20 37 20
22 0 31 4 27 13 -2 7 4 24 16 37 l20 25 -6 -37 c-5 -36 -4 -38 22 -38 27 0 28
0 23 55 -4 48 -2 55 12 49 12 -5 16 -20 16 -63 0 -31 -5 -62 -12 -69 -15 -15
-6 -24 15 -16 21 8 28 33 32 105 l2 59 -58 0 c-44 0 -57 -3 -53 -13 2 -7 -5
-22 -17 -33 l-22 -19 6 33 c6 30 5 32 -21 32 -26 0 -27 -1 -24 -50 3 -42 1
-50 -13 -50 -15 0 -17 7 -12 53 l5 53 -27 -4 c-27 -4 -28 -6 -23 -53 4 -42 2
-49 -13 -49 -14 0 -16 8 -13 50 l3 50 -34 0 c-28 0 -31 -2 -22 -14 14 -17 11
-86 -4 -86 -5 0 -11 18 -13 40 -2 29 -10 45 -27 56 -30 19 -75 9 -75 -17 0
-23 7 -24 27 -4 16 17 33 12 33 -11 0 -8 -10 -14 -23 -14 -13 0 -28 -5 -35
-12 -9 -9 -12 -7 -12 10 0 36 -31 59 -76 56 -21 -1 -70 -2 -107 -3 -49 -1 -66
-4 -61 -13 4 -6 -3 -4 -17 5 -27 19 -35 20 -67 5z m283 -58 c0 -51 -29 -48
-33 3 -3 33 -1 38 15 35 13 -2 18 -12 18 -38z m113 -22 c-6 -18 -28 -21 -28
-4 0 9 7 16 16 16 9 0 14 -5 12 -12z"/>
<path d="M4116 4607 c-11 -8 -16 -19 -12 -26 6 -9 12 -9 25 3 18 17 31 12 31
-11 0 -7 -11 -13 -24 -13 -32 0 -53 -26 -39 -48 14 -24 118 -29 109 -6 -3 9
-6 30 -6 47 0 18 -4 37 -8 44 -12 19 -55 25 -76 10z m44 -82 c0 -8 -7 -15 -15
-15 -8 0 -15 7 -15 15 0 8 7 15 15 15 8 0 15 -7 15 -15z"/>
<path d="M7044 4609 c-44 -16 -35 -50 22 -86 18 -11 18 -12 -1 -12 -12 -1 -26
4 -33 11 -9 9 -12 7 -12 -10 0 -19 5 -22 40 -22 27 0 42 5 48 18 13 24 5 40
-31 59 -19 9 -27 18 -19 21 7 2 19 -1 26 -8 10 -7 16 -8 21 0 14 23 -25 43
-61 29z"/>
<path d="M7348 4612 c-9 -2 -19 -9 -22 -17 -6 -17 10 -30 19 -15 10 15 35 12
35 -5 0 -9 -9 -15 -25 -15 -14 0 -29 -8 -35 -21 -18 -33 3 -48 66 -48 42 0 53
3 45 12 -5 7 -11 32 -13 57 -3 37 -7 45 -28 50 -14 3 -32 4 -42 2z m36 -87
c-6 -16 -34 -21 -34 -7 0 13 11 22 26 22 8 0 11 -6 8 -15z"/>
<path d="M7682 4609 c-35 -13 -30 -58 8 -72 34 -13 40 -27 10 -27 -11 0 -20 5
-20 10 0 6 -4 10 -10 10 -5 0 -10 -9 -10 -20 0 -16 7 -20 38 -20 69 0 82 39
25 73 -31 18 -34 22 -18 26 10 2 21 -2 23 -8 5 -14 22 -4 22 13 0 17 -40 25
-68 15z"/>
<path d="M1108 4598 c14 -14 16 -88 2 -88 -5 0 -10 -4 -10 -10 0 -5 15 -10 34
-10 l33 0 -5 50 c-4 43 -2 50 13 50 15 0 17 -7 13 -50 -5 -48 -4 -50 21 -50
25 0 26 2 26 60 l0 60 -69 0 c-55 0 -67 -3 -58 -12z"/>
<path d="M2218 4598 c14 -14 16 -88 2 -88 -5 0 -10 -4 -10 -10 0 -5 16 -10 36
-10 29 0 34 3 25 13 -8 11 -6 18 11 33 l21 19 -6 -32 c-6 -31 -5 -33 21 -33
26 0 27 1 27 60 0 59 -1 60 -27 60 -19 0 -26 -4 -22 -13 2 -7 -4 -22 -16 -32
-19 -18 -20 -18 -20 1 0 11 5 25 12 32 9 9 3 12 -27 12 -30 0 -36 -3 -27 -12z"/>
<path d="M6046 4594 c-9 -8 -16 -28 -16 -43 0 -38 30 -63 71 -59 42 4 49 23 7
23 -17 0 -33 6 -35 13 -3 8 7 12 31 12 42 0 50 10 35 44 -10 20 -19 26 -45 26
-18 0 -40 -7 -48 -16z m62 -21 c2 -8 -5 -13 -17 -13 -12 0 -21 6 -21 16 0 18
31 15 38 -3z"/>
<path d="M6725 4550 c0 -59 0 -60 29 -60 22 0 27 4 22 16 -3 9 -6 36 -6 60 0
39 -3 44 -22 44 -21 0 -23 -4 -23 -60z"/>
<path d="M6790 4599 c0 -5 5 -9 10 -9 14 0 12 -74 -2 -88 -9 -9 -4 -12 25 -12
20 0 37 5 37 10 0 6 -4 10 -8 10 -5 0 -6 16 -3 36 8 51 26 43 25 -11 0 -42 1
-45 27 -45 26 0 26 1 21 48 -2 26 -9 52 -14 59 -11 14 -118 16 -118 2z"/>
<path d="M6945 4550 l0 -60 35 0 c26 0 31 3 22 12 -7 7 -12 34 -12 60 0 43 -2
48 -22 48 -21 0 -23 -4 -23 -60z"/>
<path d="M7225 4549 l0 -59 33 0 c17 0 32 5 32 10 0 6 -4 10 -10 10 -5 0 -10
16 -10 35 0 28 4 35 19 35 10 0 21 6 24 14 4 11 -5 14 -41 14 l-47 1 0 -60z"/>
<path d="M7545 4586 c-17 -26 -12 -68 10 -86 17 -14 77 -9 82 6 2 7 -5 10 -20
7 -14 -3 -29 2 -36 11 -12 14 -9 16 28 16 44 0 51 12 31 51 -16 29 -75 26 -95
-5z m65 -11 c0 -8 -6 -15 -14 -15 -17 0 -28 14 -19 24 12 12 33 6 33 -9z"/>
<path d="M4746 4541 c-18 -20 -10 -37 10 -20 16 13 35 3 28 -15 -7 -17 31 -27
45 -13 8 8 15 7 24 -2 10 -10 8 -11 -8 -6 -11 3 -5 -2 13 -11 31 -17 33 -17
47 2 14 19 15 18 21 -3 8 -27 32 -30 50 -5 10 14 15 15 26 4 11 -11 10 -12 -7
-7 -16 6 -17 5 -5 -4 26 -19 57 -13 64 12 6 21 7 21 21 3 16 -21 45 -15 45 9
0 17 26 21 32 4 5 -16 45 -2 52 17 3 8 2 12 -4 9 -6 -3 -10 -1 -10 4 0 6 7 11
15 11 8 0 15 -4 15 -10 0 -5 5 -10 10 -10 15 0 12 26 -4 39 -9 8 -16 9 -21 2
-12 -21 -137 -51 -209 -51 -80 0 -173 19 -210 43 -22 15 -25 15 -40 -2z"/>
<path d="M4706 4483 c-19 -26 -19 -26 5 -44 46 -35 140 -61 244 -66 117 -6
186 6 273 47 50 23 61 33 55 47 -5 15 -3 16 7 6 11 -10 11 -20 2 -50 -6 -20
-10 -38 -9 -40 2 -1 27 14 56 33 48 33 51 37 37 53 -11 12 -29 16 -68 15 -70
-2 -68 -2 -62 -18 7 -17 -16 -33 -25 -18 -11 18 -51 2 -51 -19 0 -11 -7 -19
-15 -19 -8 0 -15 5 -15 10 0 19 -38 10 -54 -12 -14 -22 -16 -22 -29 -6 -8 10
-17 15 -20 11 -4 -3 -7 -1 -7 5 0 7 14 12 30 12 55 0 212 61 197 76 -3 3 -22
-3 -44 -14 -69 -34 -135 -47 -238 -46 -85 1 -110 5 -165 28 -36 15 -69 29 -75
31 -5 3 -19 -7 -29 -22z m78 -18 c31 -14 81 -28 111 -31 31 -4 58 -11 62 -17
4 -6 1 -7 -7 -2 -8 5 -18 1 -27 -11 -14 -18 -15 -18 -30 4 -17 24 -42 29 -60
11 -14 -14 -34 -3 -27 15 7 17 -36 29 -53 14 -8 -6 -16 -8 -20 -4 -6 6 -13 46
-8 46 2 0 28 -11 59 -25z m236 -44 c0 -15 -31 -42 -41 -36 -17 11 -9 34 14 38
12 2 23 5 25 6 1 0 2 -3 2 -8z"/>
<path d="M4980 4399 c0 -5 5 -7 10 -4 6 3 10 8 10 11 0 2 -4 4 -10 4 -5 0 -10
-5 -10 -11z"/>
<path d="M4701 4409 c8 -16 14 -18 22 -10 9 9 8 14 -3 21 -24 16 -31 11 -19
-11z"/>
<path d="M5255 4420 c-3 -5 -3 -15 1 -21 6 -11 23 6 24 24 0 10 -18 9 -25 -3z"/>
</g>
</svg>
