<svg xmlns="http://www.w3.org/2000/svg" xmlns:xlink="http://www.w3.org/1999/xlink" viewBox="0 0 1729.03 463.13"><defs><style>.cls-1{opacity:0.05;}.cls-2{fill:#eaeaea;}.cls-3{fill:url(#New_Gradient_Swatch_copy_9);}.cls-4{fill:url(#New_Gradient_Swatch_copy_9-2);}.cls-5{font-size:92.68px;fill:#fff;font-family:Lato-BlackItalic, Lato;font-weight:800;font-style:italic;}.cls-6{letter-spacing:-0.01em;}.cls-7{letter-spacing:0em;}.cls-8{letter-spacing:-0.01em;}.cls-9{letter-spacing:-0.01em;}.cls-10{letter-spacing:-0.01em;}.cls-11{letter-spacing:-0.01em;}.cls-12{letter-spacing:0em;}.cls-13{letter-spacing:-0.01em;}</style><linearGradient id="New_Gradient_Swatch_copy_9" x1="55.34" y1="223.95" x2="303.8" y2="223.95" gradientUnits="userSpaceOnUse"><stop offset="0" stop-color="#dd6767"/><stop offset="1" stop-color="#c71787"/></linearGradient><linearGradient id="New_Gradient_Swatch_copy_9-2" x1="108.73" y1="201.46" x2="248.7" y2="201.46" xlink:href="#New_Gradient_Swatch_copy_9"/></defs><g id="Layer_2" data-name="Layer 2"><g id="Layer_1-2" data-name="Layer 1"><g class="cls-1"><path class="cls-2" d="M1619.83,0H0V463.13H1619.83c60.26,0,109.2-63.72,109.2-142.18V142.18C1729,63.53,1680.09,0,1619.83,0Z"/></g><path class="cls-3" d="M303.52,221.69l0-15.58V118.6c.63-7.61.25-15.17-3.24-22.08C293.87,83.73,283.36,76.71,269,76.64c-37.11-.17-74.23-.06-111.34-.06-22.73,0-45.46-.12-68.19.06-10.5.09-19.18,4.46-26,12.55-7.83,9.31-8.68,20.29-7.83,31.71a24.45,24.45,0,0,0-.25,2.55q0,39.44,0,78.87v3h0v23.84q0,15.75,0,31.51c0,1.42.18,2.84.27,4.26-.08.84-.24,1.69-.24,2.54q0,19.32,0,38.65c0,.85.18,1.69.27,2.54q.1,15.83.19,31.65A31,31,0,0,0,64.72,360c3.41,4.33,8,7,13,9,2.07.85,4.2,1.57,6.3,2.34H274.58c.29-.19.56-.5.88-.56,7.59-1.39,13.78-5.23,19-10.79-.8-.17-1.59-.41-2.39-.57.8.16,1.59.4,2.39.56,6-6.27,8.91-13.7,9-22.82-.92.51-1.34.71-1.72,1-10.63,7.28-22.43,10.26-35.28,10.24q-87.2-.18-174.4,0c-6.33,0-10.66-2.4-13.21-8.13.24-2.74-.17-5.73.83-8.15,2-4.85,6-6.88,11.44-6.87q87.69.13,175.4,0a47.94,47.94,0,0,0,8.56-.58c9.58-1.75,17.26-6.52,22.56-14.85,2.87-4.21,5-8.77,5.16-13.9.36-10,.47-19.94.69-29.9.1-1.14.28-2.27.28-3.4q0-18.78,0-37.55C303.78,224,303.61,222.83,303.52,221.69ZM280.63,266c-.05,7.57-.11,15.15-.13,22.72,0,9.28-4.25,13.54-13.46,13.54q-82.56,0-165.11,0c-7.63,0-15.34-.86-23.4,2V225.7l0-2.42.14-.08V202.37h0q0-39.43,0-78.88c0-.86-.11-1.72-.16-2.57h0q.07-4.89.17-9.77c.11-6.64,4.84-11.52,11.41-11.52q89.46,0,178.93,0a11.22,11.22,0,0,1,11.41,11.23c.07,2.58.12,5.17.18,7.75V221.67h0Z"/><path class="cls-4" d="M232.11,221.62c-5.88-7.73-13.51-13.32-22-17.78a8.91,8.91,0,0,1,.74-1.52,40.84,40.84,0,0,0-38.5-64.79,40.74,40.74,0,0,0-28.86,62c1,1.61,1.94,3.26,2.91,4.89a63.67,63.67,0,0,0-18.66,14.35,3.41,3.41,0,0,0-.68.5,69.4,69.4,0,0,0-16.45,32.37c-.93,4.62-1.23,9.36-1.84,14.2h23c2.16-23.55,13.76-39.17,36.87-45.46h0c2.85-.33,5.69-.8,8.54-1,6.82-.42,13.29,1.28,19.67,3.43a12.6,12.6,0,0,0,1.2.75c13.66,6.61,22.47,17.21,26.05,32a101.35,101.35,0,0,1,1.47,10.22H248.7c-.62-4.89-.89-9.58-1.85-14.13A64.75,64.75,0,0,0,232.11,221.62Zm-54.06-25.91c-11-.32-17.43-7.21-17.72-17.49-.32-11.21,8.54-18.11,17.86-18.15,10,0,18.24,8.86,17.51,17.78C196.64,186.3,188.71,196,178.05,195.71Z"/><text class="cls-5" transform="translate(382.5 255.96)"><tspan class="cls-6">B</tspan><tspan class="cls-7" x="57.37" y="0">a</tspan><tspan class="cls-8" x="106.54" y="0">r</tspan><tspan x="139.54" y="0">dhi.g</tspan><tspan class="cls-9" x="336.07" y="0">r</tspan><tspan x="368.56" y="0">ain</tspan><tspan class="cls-10" x="492.84" y="0">c</tspan><tspan x="533.95" y="0">a@h</tspan><tspan class="cls-11" x="706.06" y="0">o</tspan><tspan class="cls-12" x="753.94" y="0">tmail.</tspan><tspan class="cls-13" x="981.61" y="0">c</tspan><tspan x="1022.48" y="0">om</tspan></text></g></g></svg>