<svg xmlns="http://www.w3.org/2000/svg" xmlns:xlink="http://www.w3.org/1999/xlink" viewBox="0 0 1081.23 392.44"><defs><style>.cls-1{font-size:59.35px;fill:#fff;font-family:Lato-Semibold, Lato;font-weight:600;}.cls-2{letter-spacing:-0.02em;}.cls-3{letter-spacing:-0.11em;}.cls-4{letter-spacing:-0.02em;}.cls-5{letter-spacing:0em;}.cls-6,.cls-7{opacity:0.71;}.cls-6{fill:url(#New_Gradient_Swatch_copy_11);}.cls-7{fill:url(#New_Gradient_Swatch_copy_11-2);}.cls-8{fill:url(#New_Gradient_Swatch_copy_11-3);}.cls-9{fill:#f0efef;}</style><linearGradient id="New_Gradient_Swatch_copy_11" x1="34.89" y1="146.76" x2="1079.96" y2="146.76" gradientUnits="userSpaceOnUse"><stop offset="0" stop-color="#f4da6a"/><stop offset="1" stop-color="#e8a572"/></linearGradient><linearGradient id="New_Gradient_Swatch_copy_11-2" x1="101.38" y1="161" x2="977.66" y2="161" xlink:href="#New_Gradient_Swatch_copy_11"/><linearGradient id="New_Gradient_Swatch_copy_11-3" x1="77.29" y1="170.79" x2="1003.94" y2="170.79" xlink:href="#New_Gradient_Swatch_copy_11"/></defs><g id="Layer_2" data-name="Layer 2"><g id="Layer_1-2" data-name="Layer 1"><text class="cls-1" transform="translate(290.68 375.98)"><tspan class="cls-2">Р</tspan><tspan x="35.31" y="0">аст на Е - </tspan><tspan class="cls-3" x="302.69" y="0">Т</tspan><tspan x="331.79" y="0">р</tspan><tspan class="cls-4" x="365.27" y="0">г</tspan><tspan class="cls-5" x="388.83" y="0">овија</tspan></text><path class="cls-6" d="M34.89,293.52c32.73-30.18,99.37-62.15,143.81-59.33,6.31.4,12.81.7,18.79-1.33,7.06-2.4,12.63-7.77,18.95-11.71,38.17-23.75,97.43,6.57,129.05-25.38,6.29-6.36,10.52-14.55,16.94-20.77,27.69-26.84,75-4.13,111.77-15.77,23.06-7.3,42.61-28.44,66.68-26,15.64,1.6,28.21,12.94,41.88,20.68,27.74,15.7,65.38,15.76,89.65-4.9,11.46-9.76,19.18-23.08,26.68-36.13l40.16-69.86C750.26,23.9,764.42,2.58,786.38.2c22.53-2.43,42,17.37,49.76,38.66s7.47,44.6,12.42,66.71,17.59,45.11,39.38,51.32c11.71,3.33,24.44,1.29,36.17,4.57,12.26,3.42,22.16,12.24,31.59,20.79,35.33,32,88.93,79.22,124.26,111.27Z"/><path class="cls-7" d="M977.66,288.74c-5.76-26.41-22.48-92.22-58.92-164.3-8.61-17-38.09-23.89-67.48,26-4.8,8.15-15.62,13.91-24.14,9.81-3-1.46-5.36-4-7.41-6.65-15-19.38-37.44-120.35-71.47-120.35-35.38,0-65.55,140.5-76.06,159.51-1.87,3.39-4.11,6.73-7.32,8.91-8.67,5.9-21.24.84-27.31-7.71s-55.42-160.71-113-160c-53.32.68-66.92,86.64-135.95,166.59-1.79,2.07-5,2.77-7.69,2.44-2.9-.35-5.19-2.54-7.21-4.64-16.3-16.92-33-37.42-56.43-39.31C297,157.44,278.32,171,265.76,187S244.7,221.92,232,237.86c-2.88,3.62-6.1,7.17-10.31,9.09-12.48,5.67-46.07-42.89-58.42-48.84s-28-.93-37.66,8.82c-8,8-20.22,54.4-24.26,81.81Z"/><path class="cls-8" d="M1003.94,288.74c-4.2-19.81-10-39.24-15.89-58.63-3.59-11.92-7.39-24.21-15.48-33.67s-21.74-15.36-33.29-10.71c-15.06,6.05-19.91,26.17-34.25,33.76-7.78,4.12-17.09,3.84-25.85,3-4.94-.47-9.95-1.1-14.45-3.17-6.18-2.84-9.91-11.1-12.74-17.28l-30.87-67.37c-5.07-11.09-11.67-23.47-23.56-26.19-15.9-3.64-29,12-37.82,25.74l-54.15,84.51c-2.81,4.39-6.07,9.12-11.1,10.51-10.1,2.8-17.68-9-27-13.87-13.2-7-29.31.8-41.09,10s-23.67,20.46-38.58,21.14c-18.6.85-33.3-15-44.24-30.1s-23-32.09-41.34-35.36c-17.63-3.14-34.69,7.9-47.33,20.59s-23.4,27.81-39,36.63c-6.34,3.58-13.62,6-20.84,5.09-18.9-2.49-27.75-25.47-44.81-34-19.71-9.84-43.35,2.22-65.24-.26C258,206,238.47,181.33,227.83,156.25S181.43,50.11,148.32,52.9c-27.95,2.36-51.64,149.8-71,235.84Z"/><path class="cls-9" d="M1072.65,288.74H8.59A8.58,8.58,0,0,0,0,297.33H0a8.58,8.58,0,0,0,8.59,8.58H1072.65a8.58,8.58,0,0,0,8.58-8.58h0A8.58,8.58,0,0,0,1072.65,288.74Z"/></g></g></svg>