<svg xmlns="http://www.w3.org/2000/svg" xmlns:xlink="http://www.w3.org/1999/xlink" viewBox="0 0 1740.25 1096.09"><defs><style>.cls-1,.cls-3,.cls-5,.cls-8{fill:#fff;}.cls-1{opacity:0.05;}.cls-2{fill:url(#New_Gradient_Swatch_copy_11);}.cls-3,.cls-5{font-size:136.51px;font-family:Lato-Medium, Lato;font-weight:500;}.cls-3{letter-spacing:-0.03em;}.cls-4{fill:url(#New_Gradient_Swatch_copy_10);}.cls-6{fill:url(#New_Gradient_Swatch_copy_9);}.cls-7{fill:url(#New_Gradient_Swatch_copy_8);}.cls-8{font-size:34.79px;font-family:Lato-Bold, Lato;font-weight:700;}.cls-9{letter-spacing:-0.01em;}.cls-10{letter-spacing:-0.01em;}.cls-11{letter-spacing:-0.02em;}.cls-12{letter-spacing:-0.01em;}.cls-13{letter-spacing:-0.01em;}.cls-14{letter-spacing:-0.02em;}.cls-15{letter-spacing:0em;}.cls-16{letter-spacing:-0.02em;}.cls-17{letter-spacing:-0.01em;}.cls-18{letter-spacing:0em;}.cls-19{letter-spacing:-0.02em;}.cls-20{letter-spacing:-0.06em;}.cls-21{letter-spacing:0em;}.cls-22{letter-spacing:-0.02em;}.cls-23{letter-spacing:0em;}.cls-24{letter-spacing:-0.01em;}.cls-25{letter-spacing:0em;}.cls-26{letter-spacing:-0.01em;}.cls-27{letter-spacing:-0.04em;}.cls-28{letter-spacing:-0.01em;}.cls-29{letter-spacing:-0.01em;}.cls-30{letter-spacing:-0.02em;}.cls-31{letter-spacing:-0.01em;}</style><linearGradient id="New_Gradient_Swatch_copy_11" x1="218.59" y1="229.18" x2="1521.66" y2="229.18" gradientUnits="userSpaceOnUse"><stop offset="0" stop-color="#f4da6a"/><stop offset="1" stop-color="#e8a572"/></linearGradient><linearGradient id="New_Gradient_Swatch_copy_10" x1="218.59" y1="435.16" x2="1521.66" y2="435.16" gradientUnits="userSpaceOnUse"><stop offset="0" stop-color="#eec46f"/><stop offset="1" stop-color="#de5c9a"/></linearGradient><linearGradient id="New_Gradient_Swatch_copy_9" x1="218.59" y1="653.31" x2="1521.66" y2="653.31" gradientUnits="userSpaceOnUse"><stop offset="0" stop-color="#dd6767"/><stop offset="1" stop-color="#c71787"/></linearGradient><linearGradient id="New_Gradient_Swatch_copy_8" x1="218.59" y1="862.29" x2="1521.66" y2="862.29" gradientUnits="userSpaceOnUse"><stop offset="0" stop-color="#cc2577"/><stop offset="1" stop-color="#5c3287"/></linearGradient></defs><g id="Layer_2" data-name="Layer 2"><g id="Layer_1-2" data-name="Layer 1"><rect class="cls-1" width="1740.25" height="1096.09"/><polygon class="cls-2" points="1521.66 149.82 276.54 149.82 218.59 230.44 276.54 308.55 1521.66 308.55 1521.66 149.82"/><text class="cls-3" transform="translate(1350.6 275.78)">A</text><polygon class="cls-4" points="218.59 514.53 1463.71 514.53 1521.66 433.9 1463.71 355.8 218.59 355.8 218.59 514.53"/><text class="cls-5" transform="translate(314.93 488.93)">B</text><polygon class="cls-6" points="1521.66 573.95 276.54 573.95 218.59 654.57 276.54 732.68 1521.66 732.68 1521.66 573.95"/><text class="cls-5" transform="translate(1359.3 706.93)">C</text><polygon class="cls-7" points="218.59 941.66 1463.71 941.66 1521.66 861.03 1463.71 782.92 218.59 782.92 218.59 941.66"/><text class="cls-5" transform="translate(297.96 909.14)">D</text><text class="cls-8" transform="translate(420.08 206.94)"><tspan class="cls-9">Н</tspan><tspan x="26.35" y="0">а </tspan><tspan class="cls-10" x="52.46" y="0">т</tspan><tspan x="69.81" y="0">е</tspan><tspan class="cls-11" x="88.39" y="0">к</tspan><tspan class="cls-12" x="106.62" y="0">о</tspan><tspan x="126.1" y="0">т на први</tspan><tspan class="cls-10" x="275.65" y="0">т</tspan><tspan x="292.99" y="0">е три ме</tspan><tspan class="cls-13" x="429.85" y="0">с</tspan><tspan x="446.31" y="0">еци </tspan><tspan class="cls-12" x="515.16" y="0">о</tspan><tspan x="534.64" y="0">д 2020. </tspan><tspan class="cls-14" x="662.57" y="0">П</tspan><tspan class="cls-12" x="687.97" y="0">о</tspan><tspan x="707.45" y="0">трошиле </tspan><tspan x="0" y="38.7">вкупно 28.0 милиони евра онлајн. 75% </tspan><tspan class="cls-14" x="637.74" y="38.7">Р</tspan><tspan x="658.74" y="38.7">аст </tspan><tspan class="cls-12" x="719.47" y="38.7">о</tspan><tspan x="738.95" y="38.7">д </tspan><tspan x="0" y="77.41">пр</tspan><tspan class="cls-15" x="39.56" y="77.41">е</tspan><tspan x="58.07" y="77.41">д</tspan><tspan class="cls-16" x="80.11" y="77.41">х</tspan><tspan class="cls-10" x="97.47" y="77.41">о</tspan><tspan x="116.95" y="77.41">дн</tspan><tspan class="cls-17" x="158.8" y="77.41">а</tspan><tspan class="cls-18" x="176.15" y="77.41">т</tspan><tspan x="193.91" y="77.41">а </tspan><tspan class="cls-19" x="220.02" y="77.41">г</tspan><tspan class="cls-10" x="234.07" y="77.41">о</tspan><tspan x="253.55" y="77.41">дина на ист ме</tspan><tspan class="cls-17" x="494.58" y="77.41">с</tspan><tspan x="511.04" y="77.41">ец.</tspan></text><text class="cls-8" transform="translate(420.08 420.09)">2020<tspan class="cls-20" x="80.71" y="0">г</tspan><tspan x="93.38" y="0">. реализирани </tspan><tspan class="cls-17" x="329.06" y="0">с</tspan><tspan x="345.52" y="0">е 1.945.957 онлајн трансакции </tspan><tspan x="0" y="38.7">во земј</tspan><tspan class="cls-17" x="113.94" y="38.7">а</tspan><tspan class="cls-21" x="131.28" y="38.7">т</tspan><tspan x="149.04" y="38.7">а и во странство. 63% раст </tspan><tspan class="cls-12" x="588.24" y="38.7">о</tspan><tspan x="607.72" y="38.7">д пр</tspan><tspan class="cls-15" x="677.77" y="38.7">е</tspan><tspan x="696.28" y="38.7">д</tspan><tspan class="cls-22" x="718.32" y="38.7">х</tspan><tspan class="cls-12" x="735.68" y="38.7">о</tspan><tspan x="755.16" y="38.7">дна </tspan><tspan class="cls-19" x="0" y="77.41">г</tspan><tspan class="cls-10" x="14.06" y="77.41">о</tspan><tspan x="33.54" y="77.41">дина. </tspan></text><text class="cls-8" transform="translate(420.08 631.77)"><tspan class="cls-23">С</tspan><tspan x="22.96" y="0">и</tspan><tspan class="cls-12" x="43.24" y="0">т</tspan><tspan x="60.59" y="0">е фирми </tspan><tspan class="cls-13" x="206.74" y="0">с</tspan><tspan x="223.2" y="0">о напр</tspan><tspan class="cls-15" x="328.67" y="0">е</tspan><tspan class="cls-24" x="347.17" y="0">д</tspan><tspan x="368.92" y="0">ен мар</tspan><tspan class="cls-11" x="478.09" y="0">к</tspan><tspan class="cls-25" x="496.32" y="0">е</tspan><tspan x="514.78" y="0">тинг план, </tspan><tspan x="0" y="38.7">перформир</tspan><tspan class="cls-17" x="188.25" y="38.7">а</tspan><tspan x="205.59" y="38.7">т 230% по </tspan><tspan class="cls-24" x="377.65" y="38.7">д</tspan><tspan x="399.39" y="38.7">обро во спор</tspan><tspan class="cls-15" x="610.36" y="38.7">е</tspan><tspan class="cls-26" x="628.87" y="38.7">д</tspan><tspan x="650.43" y="38.7">ба </tspan><tspan class="cls-17" x="697.1" y="38.7">с</tspan><tspan x="713.56" y="38.7">о тие </tspan><tspan x="0" y="77.41">фрими ш</tspan><tspan class="cls-10" x="148.05" y="77.41">т</tspan><tspan x="165.39" y="77.41">о нем</tspan><tspan class="cls-17" x="257.15" y="77.41">а</tspan><tspan class="cls-27" x="274.5" y="77.41">т</tspan><tspan x="290.85" y="77.41">. </tspan></text><text class="cls-8" transform="translate(420.08 855.36)"><tspan class="cls-28">В</tspan><tspan x="22.65" y="0">о први</tspan><tspan class="cls-10" x="128.41" y="0">т</tspan><tspan x="145.75" y="0">е 3 ме</tspan><tspan class="cls-17" x="244.92" y="0">с</tspan><tspan x="261.38" y="0">еци на 2020 </tspan><tspan class="cls-17" x="465.32" y="0">с</tspan><tspan x="481.78" y="0">е реализирани 56 </tspan><tspan x="0" y="38.7">милиони евра на е</tspan><tspan class="cls-29" x="301.25" y="38.7">-</tspan><tspan x="313.88" y="38.7">тр</tspan><tspan class="cls-19" x="351.47" y="38.7">г</tspan><tspan x="365.53" y="38.7">овија на </tspan><tspan class="cls-30" x="504.15" y="38.7">г</tspan><tspan class="cls-31" x="518.2" y="38.7">о</tspan><tspan x="537.76" y="38.7">леми и мало.</tspan></text></g></g></svg>