<svg xmlns="http://www.w3.org/2000/svg" xmlns:xlink="http://www.w3.org/1999/xlink" viewBox="0 0 1740.25 283.42"><defs><style>.cls-1,.cls-2{fill:#eaeaea;}.cls-1{opacity:0.05;}.cls-2{font-size:54.18px;font-family:Lato-BlackItalic, Lato;font-weight:800;font-style:italic;}.cls-3{letter-spacing:-0.01em;}.cls-4{letter-spacing:-0.02em;}.cls-5{letter-spacing:-0.01em;}.cls-6{letter-spacing:-0.07em;}.cls-7{letter-spacing:-0.02em;}.cls-8{letter-spacing:-0.06em;}.cls-9{letter-spacing:0.01em;}.cls-10{letter-spacing:-0.02em;}.cls-11{font-size:66.84px;}.cls-12{fill:url(#New_Gradient_Swatch_copy_9);}.cls-13{fill:url(#New_Gradient_Swatch_copy_9-2);}.cls-14{fill:url(#New_Gradient_Swatch_copy_9-3);}.cls-15{fill:url(#New_Gradient_Swatch_copy_9-4);}.cls-16{fill:url(#New_Gradient_Swatch_copy_9-5);}</style><linearGradient id="New_Gradient_Swatch_copy_9" x1="301.34" y1="12.58" x2="-119.86" y2="373.13" gradientUnits="userSpaceOnUse"><stop offset="0" stop-color="#dd6767"/><stop offset="1" stop-color="#c71787"/></linearGradient><linearGradient id="New_Gradient_Swatch_copy_9-2" x1="298.62" y1="9.45" x2="-122.59" y2="370" xlink:href="#New_Gradient_Swatch_copy_9"/><linearGradient id="New_Gradient_Swatch_copy_9-3" x1="255.73" y1="-42.61" x2="-165.48" y2="317.95" xlink:href="#New_Gradient_Swatch_copy_9"/><linearGradient id="New_Gradient_Swatch_copy_9-4" x1="337.8" y1="57.25" x2="-83.4" y2="417.8" xlink:href="#New_Gradient_Swatch_copy_9"/><linearGradient id="New_Gradient_Swatch_copy_9-5" x1="347.58" y1="68.67" x2="-73.62" y2="429.23" xlink:href="#New_Gradient_Swatch_copy_9"/></defs><g id="Layer_2" data-name="Layer 2"><g id="Layer_1-2" data-name="Layer 1"><path class="cls-1" d="M1630.34,0H0V283.42H1630.34c60.65,0,109.91-39,109.91-87V87C1740.25,38.88,1691,0,1630.34,0Z"/><text class="cls-2" transform="translate(392.18 121.46)"><tspan class="cls-3">З</tspan><tspan x="29.21" y="0">АПОЧНЕТЕ ДА ГИ ИС</tspan><tspan class="cls-4" x="558.12" y="0">К</tspan><tspan x="593.26" y="0">ОРИСТУ</tspan><tspan class="cls-5" x="804.09" y="0">В</tspan><tspan class="cls-6" x="837.28" y="0">А</tspan><tspan x="869.71" y="0">ТЕ </tspan><tspan x="0" y="71.86">ПРИ</tspan><tspan class="cls-7" x="109.64" y="71.86">Д</tspan><tspan x="150.23" y="71.86">ОБИВКИТЕ </tspan><tspan class="cls-7" x="443.34" y="71.86">О</tspan><tspan x="483.38" y="71.86">Д ДИГИ</tspan><tspan class="cls-8" x="683.89" y="71.86">Т</tspan><tspan class="cls-9" x="711.22" y="71.86">А</tspan><tspan x="747.93" y="71.86">ЛНИ</tspan><tspan class="cls-10" x="864.84" y="71.86">О</tspan><tspan x="904.66" y="71.86">Т МАРКЕТИНГ!</tspan><tspan class="cls-11" x="1280.7" y="71.86"> </tspan></text><path class="cls-12" d="M291.8,113v-40c0-2.53.17-5.07,0-7.59-.21-3.61-1.13-7-3.75-9.76a11.9,11.9,0,0,0-1.32-2.28A18.61,18.61,0,0,0,275,47.07a3.85,3.85,0,0,1-3.3-2.34c-7.5-14-19.24-21.58-35.08-21.61s-27.77,7.55-35.33,21.61a3.23,3.23,0,0,1-3.35,2c-17.79-.06-35.58,0-53.37,0q-35,0-69.94,0A19.44,19.44,0,0,0,55.78,60a10.78,10.78,0,0,0-.72,2.59c-.18,7.06-.27,14.13-.39,21.2V163.9c0,2.21-.19,4.43,0,6.62.45,5.71,2.68,10.55,7.36,14.08a17.47,17.47,0,0,0,11.86,4.49q22.59,0,45.18,0h2.84v14.83c-.61,8,2.39,14.7,7.21,20.8.26,1.22.51,2.44.82,3.91-1.39,0-2.36,0-3.33,0-3.35,0-4.76,1.42-4.77,4.78,0,3.68,0,7.36.08,11,0,3.87-.11,7.73-.06,11.59,0,2.73,1.57,4.22,4.38,4.22q39.09,0,78.19,0c2.8,0,4.35-1.49,4.39-4.22.05-3.86,0-7.72-.06-11.59s.11-7.74.06-11.6c0-2.63-1.55-4.09-4.17-4.2-1.21-.06-2.42,0-4.29,0,.82-2.09,1.47-3.71,2.11-5.33a8.8,8.8,0,0,0,.65-.72c5.51-7.18,6.23-15.49,5.64-24.11v-9.39h3.1q30,0,60,0c7.61,0,15.55-5.23,18.2-11.82h0c.45-1.29,1.24-2.57,1.31-3.89.26-5.3.31-10.61.43-15.92V113ZM78.41,139.18q0,11.61,0,23.23v18.38c-8.53,2.11-15.82-3.47-15.9-12,0-1.64,0-3.28-.08-4.91V83.81c0-4.93-.06-9.87.13-14.8.1-2.6.67-5.17,1-7.75h0c3.31-5.5,8.27-7.33,14.61-6.44.07.73.14,1.52.21,2.3V76.89q0,10.64,0,21.26v41ZM201,236.72v15.51H129.65V236.72Zm0-38.22c0,2.79,0,5.59-.13,8.38-.22,4.42-2.07,8.23-4.61,11.77-.8,1.12-1.42,2.38-2.12,3.58-.51,2-1,4.08-1.56,6.3H137.89c-.24-1.32-.46-2.58-.68-3.84-.81-1.83-1.34-3.86-2.48-5.47-3.26-4.61-5.51-9.48-5.08-15.28V183.67c0-4.2.07-8.4.08-12.6,0-4.55,1.16-5.71,5.66-5.69h2.25v13.38c0,2.06,0,4.12,0,6.18.08,2.5,1.71,4.17,4,4.15a3.9,3.9,0,0,0,3.91-4.2c0-7.16,0-14.32-.06-21.49V137.7c0-5,0-10,.09-15,0-2.74,1.75-4.72,4-4.73s3.88,1.9,3.91,4.72q.06,6.28.08,12.57V154.5c0,4.84-.09,9.67-.06,14.5,0,2.53,1.6,4.2,3.81,4.27s4-1.64,4.06-4.27c0-4.83,0-9.66-.06-14.5,0-1.62,0-3.26.1-4.88a3.94,3.94,0,0,1,4.05-4,4,4,0,0,1,3.82,4c.09,1.47.07,2.93.1,4.4,0,5-.09,10-.06,15,0,2.53,1.59,4.2,3.81,4.27s4-1.64,4.06-4.27c0-5,0-10-.06-15,.46-3,1.86-4.5,4.15-4.43s3.49,1.58,3.92,4.43c0,5-.09,10-.06,15a3.93,3.93,0,0,0,3.85,4.24c2.32,0,4-1.67,4-4.32.05-2.3,0-4.6,0-6.9,0-2.79,1.47-4.51,3.73-4.57,2.52-.06,4.12,1.75,4.17,4.71,0,2.22.05,4.43.08,6.65V198.5Zm-71.29-108c-.06-3.12-2.25-4.7-5.36-4-3.36.79-6.7,1.65-10.28,2.53-.09-1.39-.16-2.58-.23-3.76V81.54c6.77-1.73,13.22-4.12,20.3-3,2.56,7.15,7.55,11.54,15.37,11.54s12.8-4.4,15.36-11.54c7.09-1.15,13.54,1.21,20.31,3v4.73c-.06.82-.12,1.63-.2,2.75l-9.84-2.36c-3.87-.93-5.85.59-5.85,4.57,0,5.93.05,11.86.07,17.78v16.65h-8c.37-5-.18-9.72-4.49-13.08a11.67,11.67,0,0,0-8-2.56c-7,.39-10.71,5.46-11.27,15.62h-7.9V102.1C129.68,98.23,129.78,94.36,129.71,90.49Zm130.61,87.74c-.05.9-.1,1.8-.16,2.83-.66.05-1.3.13-1.94.13q-23.61,0-47.21,0a10.73,10.73,0,0,1-2.26-.48V168.84c.06-5.14,1-10.44-2.74-14.88-3.56-4.33-8.19-5-13.27-3.82-4.07-7.9-9.09-9.94-17.44-7.12-3.45-4.51-8-6.17-13.79-4.78-.08-1.08-.15-2.05-.22-3s.37-1.54,1.59-1.51c3.29.09,6.59.07,9.88,0,2.82,0,4.39-1.48,4.41-4.2,0-6.84,0-13.67-.06-20.51V95.31c3.83,1,7.17,1.81,10.52,2.6s5.31-.89,5.37-4.22c0-2.47,0-4.94-.07-7.41s.07-5.1.07-7.65a3.93,3.93,0,0,0-3.18-4.14c-9.06-2.43-18.08-5-27.65-4.07-3.14.3-4.41,1.24-4.76,4.41-.5,4.44-3.84,7.56-8,7.49a8,8,0,0,1-7.77-7.49c-.33-3.15-1.62-4.11-4.77-4.41-9.57-.91-18.59,1.64-27.65,4.07A3.94,3.94,0,0,0,106,78.63c0,2.22,0,4.44.08,6.67,0,2.63-.09,5.26-.08,7.89,0,4,2,5.5,5.85,4.57l10-2.4v22.56c0,3.62-.08,7.24-.08,10.86s1.37,4.94,4.9,5,7.18,0,11,0v23.74c-5.43-.24-10.29.13-13.45,4.89-.82,2.34-2.1,4.63-2.35,7a115.81,115.81,0,0,0-.1,11.66H86.15V57.12c0-.74.11-1.47.17-2.34H197.45v2.83a3.45,3.45,0,0,0-.46,1.1c-.26,7,.41,13.79,3.57,20.16a37.29,37.29,0,0,0,19.05,19.4c14.13,6.49,27.65,4.69,40.71-4v84Zm2.61-98.31a31.56,31.56,0,0,1-34.46,13.23c-8.52-2.25-14.85-7.46-19.53-14.81-1.3-4.13-2.86-8.2-3.8-12.4-.6-2.67-.26-5.55-.35-8.33a20,20,0,0,0,1-2.48A31.66,31.66,0,0,1,238.28,31c14.58.58,27,11.86,29.46,26.66.13,1.45.34,2.89.39,4.34.21,5.84-1.5,11.22-4.07,16.38C263.68,78.86,263.29,79.38,262.93,79.92ZM284.05,113v44.49c0,3.34-.16,6.68-.05,10a15.3,15.3,0,0,1-2.23,8.84h0c-3.48,4.29-8,5.5-13.51,4.69l-.19-2.79V99.63c0-2.29.15-4.59.06-6.88-.13-3.8-.13-7.47,2.56-10.63.78-.91.92-2.36,1.35-3.56a11.86,11.86,0,0,0,1.45-2.14,37.14,37.14,0,0,0,2-19.3c0-.48.06-1,.12-1.8l2.44,1A12.16,12.16,0,0,1,284,67.28c0,1.89,0,3.77.07,5.66v40Z"/><path class="cls-13" d="M240.66,42.7c-.66-6.32-1.42-7.91-4.08-7.71-5.16.38-3.68,4.65-4.14,7.67-7.25,1.23-11.77,5.74-11.66,11.55a11.75,11.75,0,0,0,11.14,12.32c2.46.11,4.94.12,7.41,0a4.85,4.85,0,0,1,4.93,2.54c.34,3.81-1,5.36-4.81,5.39-1.81,0-3.62,0-5.43,0-3.86,0-4.71-.69-5.46-4.45a3.85,3.85,0,0,0-3.42-3.39,3.42,3.42,0,0,0-4,2.24,7.48,7.48,0,0,0-.23,3.84c1.34,6.06,5.45,9.08,11.53,9.84.27,3.14-1.05,7.58,3.91,7.6s3.7-4.61,4.2-7.63c8-1.21,12.4-6.41,11.56-13.57h0c-1.12-6.37-5.65-10.24-12.07-10.29-2.21,0-4.42,0-6.63,0-3.27,0-4.54-1.19-4.9-4.44.59-2.46,2.22-3.49,4.67-3.47,1.89,0,3.78,0,5.67,0,4,0,4.74.58,5.59,4.56a4,4,0,0,0,4.24,3.32,4,4,0,0,0,3.6-4,8.56,8.56,0,0,0-.21-2.2C250.65,46.41,246.6,43.38,240.66,42.7Z"/><path class="cls-14" d="M74.36,108.64c0-2.71-1.57-4.42-3.88-4.46s-4,1.67-4,4.33q-.07,7.51,0,15c0,2.66,1.68,4.38,4,4.34s3.84-1.75,3.89-4.46c0-2.38,0-4.76,0-7.14C74.37,113.73,74.4,111.19,74.36,108.64Z"/><path class="cls-15" d="M276,116a3.94,3.94,0,0,0,4-3.83c.06-.74,0-1.48,0-2.21h0c0-.58,0-1.15,0-1.72-.14-2.47-1.77-4.11-4-4.08s-3.78,1.69-3.88,4.2c-.05,1.23-.07,2.46,0,3.68A4,4,0,0,0,276,116Z"/><path class="cls-16" d="M276.11,124c-2.31,0-3.9,1.68-4,4.33,0,.49,0,1,0,1.47,0,4.17,1.28,6.09,4,6s3.9-1.9,3.9-5.92c0-.49,0-1,0-1.48C279.93,125.71,278.43,124,276.11,124Z"/></g></g></svg>